<?xml version="1.0" standalone="no"?>
<!DOCTYPE svg PUBLIC "-//W3C//DTD SVG 20010904//EN"
 "http://www.w3.org/TR/2001/REC-SVG-20010904/DTD/svg10.dtd">
<svg version="1.0" xmlns="http://www.w3.org/2000/svg"
 width="750.000000pt" height="750.000000pt" viewBox="0 0 750.000000 750.000000"
 preserveAspectRatio="xMidYMid meet">
<metadata>
Created by potrace 1.14, written by Peter Selinger 2001-2017
</metadata>
<g transform="translate(0.000000,750.000000) scale(0.100000,-0.100000)"
fill="#000000" stroke="none">
<path d="M436 6939 c-55 -13 -99 -36 -114 -59 -7 -11 -15 -46 -18 -78 -7 -61
0 -83 106 -337 48 -116 115 -276 264 -640 59 -143 114 -273 121 -290 8 -16 53
-124 101 -240 47 -115 123 -300 169 -410 46 -110 154 -371 240 -580 86 -209
164 -396 172 -415 8 -19 19 -44 23 -55 4 -11 15 -36 23 -55 8 -19 36 -87 62
-150 26 -63 53 -128 60 -145 8 -16 62 -147 120 -290 59 -143 112 -273 120
-290 7 -16 29 -70 49 -120 20 -49 41 -99 46 -110 5 -11 70 -166 144 -345 74
-179 173 -419 221 -535 48 -115 103 -248 122 -295 19 -47 41 -101 50 -120 24
-56 35 -82 133 -320 51 -124 100 -243 110 -265 88 -197 90 -200 147 -229 29
-14 113 -16 831 -16 l799 0 33 23 c19 12 48 42 65 67 17 25 134 293 259 595
265 641 254 615 266 637 6 10 16 35 24 55 13 37 295 720 321 778 8 17 52 125
100 240 47 116 92 224 100 240 7 17 97 233 200 480 102 248 193 464 201 482 8
17 14 34 14 37 0 3 9 25 19 49 11 23 47 107 80 187 117 282 672 1618 694 1670
6 14 11 27 12 30 1 3 9 22 18 44 9 21 17 41 17 43 0 3 6 19 14 36 26 57 52
119 137 322 88 212 100 265 72 323 -31 65 15 62 -1113 62 -726 0 -1026 -3
-1043 -11 -32 -14 -9 35 -242 -529 -97 -234 -191 -461 -210 -505 -86 -205
-459 -1106 -476 -1150 -11 -27 -31 -74 -44 -103 -14 -29 -25 -55 -25 -58 0 -8
-189 -462 -216 -518 -8 -16 -14 -36 -14 -45 0 -21 -22 11 -42 64 -9 22 -28 67
-43 100 -14 33 -32 74 -40 90 -7 17 -23 53 -35 80 -13 28 -46 104 -75 170 -29
66 -128 291 -220 500 -92 209 -176 400 -187 425 -11 25 -28 63 -38 85 -10 22
-84 189 -163 371 -140 318 -161 366 -208 472 -12 26 -30 67 -41 92 -11 25 -26
58 -33 75 -15 34 -38 85 -85 195 -52 120 -66 139 -134 171 l-60 29 -961 -1
c-541 -1 -977 -5 -999 -10z"/>
</g>
</svg>
