<svg xmlns="http://www.w3.org/2000/svg" xmlns:xlink="http://www.w3.org/1999/xlink" width="103.462" height="90.845" viewBox="0 0 103.462 90.845"><defs><style>.a{fill:#2f81ff;opacity:0.25;}.b{clip-path:url(#a);}.c{fill:#294a6d;}.d{fill:#fff;}.e{fill:#f5c543;fill-rule:evenodd;}</style><clipPath id="a"><path class="a" d="M65.97,0A20,20,0,0,1,83.35,10.1L97.826,35.526a20,20,0,0,1,0,19.794L83.35,80.742a20,20,0,0,1-17.38,10.1H37.492a20,20,0,0,1-17.38-10.1L5.636,55.319a20,20,0,0,1,0-19.794L20.112,10.1A20,20,0,0,1,37.492,0Z" transform="translate(643 1311.578)"/></clipPath></defs><g class="b" transform="translate(-643 -1311.578)"><g transform="translate(644.465 1305.578)"><circle class="c" cx="51.5" cy="51.5" r="51.5" transform="translate(-0.465)"/><ellipse class="d" cx="16" cy="15.5" rx="16" ry="15.5" transform="translate(35.535 39)"/><path class="e" d="M939.392,609.871V602.7c0-10.145-8.387-12.8-12.82-12.8a15.306,15.306,0,0,0-6.305,1.556c-2.978,1.489-6.53,4.643-6.53,11.243v7.537A17.012,17.012,0,0,0,908,623.308c0,10.519,8.178,17.7,18.776,17.7s18.776-7.183,18.776-17.7A16.986,16.986,0,0,0,939.392,609.871Zm-21.17-7.175c0-8.021,7.495-8.328,8.345-8.328s8.345.307,8.345,8.328v4.493a21.705,21.705,0,0,0-16.69.183Zm16.945,27.051c-.068.047-.464.3-.522.52s.031.38,0,.578a2.892,2.892,0,0,1-.365.671c-.052.068.1.2.094.287s-.052.255,0,.333.271.1.281.193.1.229-.088.333a.4.4,0,0,1-.318.068,17.707,17.707,0,0,1-1.82.234,1.565,1.565,0,0,0-.72.042,4.272,4.272,0,0,1-1.179.156c-.063-.073-.063-.2-.115-.25a.27.27,0,0,1-.146-.291,1.728,1.728,0,0,0-.12-.739c-.063-.068-.558-.562-.647-.624s-.485-.458-.594-.469-.449,0-.5-.161,0-.469-.1-.479-.558.125-.61.1-.553-.239-.563-.323a.928.928,0,0,0-.313-.365c-.1-.047-.146-.135-.276-.12s-.292.073-.36,0a.329.329,0,0,0-.313-.114,2.747,2.747,0,0,1-.694-.078c-.078,0-.318-.182-.245-.328s.12-.12.1-.219-.114-.276-.094-.375.083-.208.073-.255-.438-.214-.428-.338.135-.193.125-.245-.8-.562-.834-.88-.522-.781-.605-.9a.822.822,0,0,1-.109-.635c.078-.172.235-.4.2-.52a.555.555,0,0,0-.37-.271s-.49-.218-.49-.521a1.286,1.286,0,0,0-.036-.468,1.185,1.185,0,0,1,0-.521c.042,0,.24.427.318.463s.151.13.177.068a.716.716,0,0,0-.052-.427c-.063-.057-.1-.073-.141-.119s0-.193-.084-.224-.162-.057-.125-.141.125-.063.224-.125.036-.2-.1-.239-.235-.125-.24,0,.094.578.042.578-.261-.224-.375-.291-.375-.1-.407-.146.125-.281.094-.349a1.479,1.479,0,0,0-.172-.219c-.031-.036,0-.177-.047-.219a7.579,7.579,0,0,1-.9-1.072c0-.125.12-.375.1-.422s-.245-.25-.208-.432.177-.458.141-.614a4.5,4.5,0,0,0-.48-.994c-.109-.1-.344-.39-.276-.573s.365-.6.448-.843a1.056,1.056,0,0,0,0-.52,5.859,5.859,0,0,0,.219-.624.739.739,0,0,0-.157-.432c-.052-.047-.219-.354.005-.5a54.461,54.461,0,0,0,5.847.344s-.256,5.679-.162,5.788,8.115,7.735,8.147,7.808,0,.312.083.416.308.333.308.442a.6.6,0,0,0,.2.375c.078.036.329.167.261.214Z" transform="translate(-875.526 -568.8)"/></g></g></svg>