<?xml version="1.0" encoding="utf-8"?>
<!-- Generator: Adobe Illustrator 22.0.0, SVG Export Plug-In . SVG Version: 6.00 Build 0)  -->
<svg version="1.1" id="layer" xmlns="http://www.w3.org/2000/svg" xmlns:xlink="http://www.w3.org/1999/xlink" x="0px" y="0px"
	 viewBox="0 0 602.4 158.7" style="enable-background:new 0 0 602.4 158.7;" xml:space="preserve">
<style type="text/css">
	.st0{fill:#0091E2;}
</style>
<path class="st0" d="M284.2,48.7c-3.2-0.1-5.8,2.4-5.9,5.5c0,0.1,0,0.3,0,0.4V83c-13.7-11-33.8-8.8-44.8,4.9c-4.5,5.7-7,12.7-7,20
	c-0.3,17.6,13.7,32.1,31.3,32.4s32.1-13.7,32.4-31.3c0-0.4,0-0.7,0-1.1V54.6c0-1.6-0.6-3.1-1.7-4.2
	C287.3,49.3,285.8,48.7,284.2,48.7 M276.7,115.6c-2,4.8-5.8,8.6-10.6,10.7c-5,2.1-10.6,2.1-15.6,0c-4.8-2-8.5-5.9-10.5-10.6
	c-2.1-4.9-2.1-10.5,0-15.5c2-4.8,5.8-8.6,10.5-10.6c5-2.1,10.6-2.1,15.6,0c4.8,2.1,8.6,5.9,10.6,10.7
	C278.8,105.1,278.8,110.7,276.7,115.6"/>
<path class="st0" d="M350.7,85.4c-12.4-12.4-32.6-12.4-45,0c-6,6-9.3,14.1-9.3,22.5c-0.3,17.6,13.7,32.1,31.3,32.4
	c17.6,0.3,32.1-13.7,32.4-31.3c0-0.4,0-0.7,0-1.1c0-4.2-0.8-8.3-2.4-12.2C356.1,91.8,353.7,88.3,350.7,85.4 M346.6,115.5
	c-1,2.4-2.5,4.5-4.3,6.3s-4,3.3-6.3,4.3c-5,2.1-10.6,2.1-15.6,0c-4.8-2-8.6-5.9-10.6-10.6c-2.1-4.9-2.1-10.5,0-15.5
	c2-4.8,5.8-8.5,10.6-10.6c5-2.1,10.6-2.1,15.6,0c2.4,1,4.5,2.5,6.3,4.3s3.3,4,4.3,6.3C348.7,105.1,348.7,110.7,346.6,115.5"/>
<path class="st0" d="M482.4,81.9c0-0.8-0.2-1.6-0.5-2.3c-0.3-0.7-0.8-1.3-1.3-1.9c-0.5-0.5-1.2-1-1.9-1.3c-0.7-0.3-1.5-0.5-2.3-0.5
	c-1.1,0-2.2,0.3-3.2,0.9l-34,22.1V54.7c0-1.6-0.6-3.1-1.7-4.2s-2.6-1.8-4.2-1.8c-3.3,0-5.9,2.6-6,5.9c0,0,0,0,0,0.1v79
	c0,1.6,0.6,3.1,1.7,4.2c1.1,1.2,2.6,1.8,4.2,1.8s3.1-0.6,4.2-1.8c1.1-1.1,1.8-2.6,1.7-4.2v-20.5l6.9-4.5l26.3,29.5
	c1.1,1,2.5,1.6,4,1.5c0.8,0,1.6-0.1,2.3-0.5c0.7-0.3,1.3-0.7,1.9-1.3c0.5-0.6,1-1.2,1.3-1.9c0.3-0.7,0.5-1.5,0.5-2.3
	c0-1.5-0.6-3-1.6-4.1l-24.4-27.5l23.8-15.5C481.7,85.6,482.5,83.8,482.4,81.9"/>
<path class="st0" d="M383.7,93.7c1.8-1.8,4-3.3,6.4-4.3c2.5-1,5.1-1.6,7.8-1.6c2.4,0,4.7,0.4,6.9,1.2c2.2,0.9,4.3,2.1,6.1,3.7
	c1.1,0.9,2.5,1.3,3.9,1.3c1.6,0.1,3.2-0.5,4.3-1.7c1.1-1.1,1.7-2.7,1.7-4.3c0-1.7-0.7-3.4-2.1-4.5c-5.7-5.1-13.1-7.9-20.8-7.7
	c-17.6,0-31.9,14.3-31.9,31.9s14.2,31.8,31.7,31.9c7.7,0,15.1-2.7,20.9-7.7c1.2-1.1,1.9-2.7,1.9-4.4c0.1-3.2-2.4-5.8-5.5-5.9
	c-0.1,0-0.3,0-0.4,0c-1.4,0-2.7,0.4-3.8,1.2c-1.8,1.6-3.8,2.8-6,3.7c-2.2,0.8-4.6,1.2-6.9,1.2c-2.7,0-5.3-0.5-7.8-1.6
	c-2.4-1-4.5-2.5-6.4-4.3C375.9,114,375.9,101.4,383.7,93.7C383.7,93.8,383.7,93.8,383.7,93.7"/>
<path class="st0" d="M600.5,80c-1.2-1.1-2.5-1.9-4-2.4c-1.7-0.6-3.5-1-5.3-1.2s-3.6-0.3-5.4-0.3c-3.6,0-7.3,0.6-10.7,1.9
	c-3.4,1.2-6.5,3-9.3,5.2V82c-0.1-3.3-2.9-5.8-6.2-5.7c-3.1,0.1-5.6,2.6-5.7,5.7v51.9c0.1,3.3,2.9,5.8,6.2,5.7
	c3.1-0.1,5.6-2.6,5.7-5.7V108c0-2.7,0.5-5.3,1.6-7.8c1-2.4,2.4-4.5,4.3-6.3c1.8-1.8,4-3.3,6.3-4.3c2.5-1,5.1-1.6,7.8-1.6
	s5.3,0.5,7.8,1.4c0.8,0.4,1.6,0.6,2.5,0.6c0.8,0,1.6-0.1,2.3-0.5c0.7-0.3,1.3-0.7,1.9-1.3c0.5-0.5,1-1.2,1.3-1.9
	c0.3-0.7,0.5-1.5,0.5-2.3C602.2,82.5,601.6,81.1,600.5,80"/>
<path class="st0" d="M545.3,95.7c-5.1-11.8-16.7-19.5-29.5-19.6c-17.6,0-31.8,14.2-31.9,31.8l0,0c0,17.6,14.3,31.9,31.9,31.9
	c7.6,0,15-2.7,20.8-7.7c0.1-0.1,0.2-0.2,0.2-0.2c0.5-0.4,1-0.9,1.3-1.5c1.9-2.8,1.2-6.5-1.5-8.4c-2.3-1.5-5.3-1.2-7.3,0.7
	c-0.2,0.2-0.8,0.7-0.8,0.8l-0.1,0.1c-1.7,1.4-3.6,2.6-5.7,3.3c-2.2,0.8-4.5,1.2-6.9,1.1c-2.2,0-4.3-0.3-6.4-1
	c-2-0.7-3.9-1.6-5.6-2.9c-1.7-1.2-3.2-2.7-4.4-4.4c-1.3-1.7-2.2-3.7-2.8-5.7h45c1.6,0,3.1-0.6,4.2-1.7c1.2-1.1,1.8-2.6,1.7-4.2
	C547.6,103.8,546.8,99.6,545.3,95.7 M496.6,102.1c0.6-2.1,1.5-4,2.8-5.7c1.2-1.7,2.7-3.2,4.4-4.4c1.7-1.2,3.6-2.2,5.6-2.9
	c2-0.7,4.2-1,6.3-1s4.3,0.3,6.3,1c4,1.3,7.5,3.9,10,7.3c1.3,1.7,2.2,3.7,2.9,5.7H496.6z"/>
<path class="st0" d="M580.2,131.1c-2.3,0-4.1,1.9-4.1,4.2c0,2.3,1.9,4.1,4.2,4.1s4.1-1.9,4.1-4.1
	C584.4,132.9,582.5,131.1,580.2,131.1L580.2,131.1 M580.2,138.5c-1.8,0.1-3.3-1.3-3.4-3.1c-0.1-1.8,1.3-3.3,3.1-3.4s3.3,1.3,3.4,3.1
	c0,0.1,0,0.1,0,0.2C583.4,137,582,138.5,580.2,138.5C580.3,138.5,580.3,138.5,580.2,138.5"/>
<path class="st0" d="M581.2,135.3L581.2,135.3c0.5-0.1,0.8-0.5,0.8-1c0-0.4-0.1-0.7-0.4-0.9c-0.4-0.2-0.9-0.3-1.4-0.3
	s-1.1,0-1.6,0.1v4.1h0.9v-1.6h0.4c0.5,0,0.8,0.2,0.9,0.6c0.1,0.3,0.2,0.7,0.3,1h1c-0.2-0.3-0.3-0.7-0.3-1
	C581.9,135.9,581.6,135.5,581.2,135.3 M580,135h-0.5v-1.2c0.2,0,0.4,0,0.5,0c0.6,0,0.9,0.3,0.9,0.6C581,134.8,580.5,135.1,580,135"
	/>
<path class="st0" d="M215.6,62.1c-0.6-0.5-6-4.6-17.6-4.6c-3,0-6.1,0.3-9.1,0.8C186.7,43,174,35.6,173.5,35.2l-3.1-1.8l-2,2.9
	c-2.5,3.9-4.4,8.3-5.5,12.8c-2.1,8.7-0.8,16.9,3.6,23.9c-5.3,3-13.9,3.7-15.7,3.8H8.8c-3.7,0-6.7,3-6.7,6.7
	C1.9,95.9,4,108.3,8.3,120c4.9,12.8,12.2,22.3,21.6,28.1c10.6,6.5,27.9,10.2,47.4,10.2c8.8,0,17.6-0.8,26.3-2.4
	c12.1-2.2,23.7-6.4,34.4-12.5c8.8-5.1,16.7-11.6,23.4-19.2c11.3-12.7,18-26.9,22.9-39.5c0.7,0,1.3,0,2,0c12.3,0,19.9-4.9,24.1-9.1
	c2.8-2.6,4.9-5.8,6.4-9.4l0.9-2.6L215.6,62.1z"/>
<path class="st0" d="M22,72.7h19c0.9,0,1.7-0.7,1.7-1.7l0,0V54c0-0.9-0.7-1.7-1.7-1.7l0,0H22c-0.9,0-1.7,0.7-1.7,1.7l0,0v17
	C20.4,72,21.1,72.7,22,72.7L22,72.7"/>
<path class="st0" d="M48.2,72.7h19c0.9,0,1.7-0.7,1.7-1.7l0,0V54c0-0.9-0.7-1.7-1.7-1.7l0,0h-19c-0.9,0-1.7,0.7-1.7,1.7v17
	C46.6,72,47.3,72.7,48.2,72.7"/>
<path class="st0" d="M74.9,72.7h19c0.9,0,1.7-0.7,1.7-1.7l0,0V54c0-0.9-0.7-1.7-1.7-1.7l0,0h-19c-0.9,0-1.7,0.7-1.7,1.7l0,0v17
	C73.2,72,73.9,72.7,74.9,72.7L74.9,72.7"/>
<path class="st0" d="M101.2,72.7h19c0.9,0,1.7-0.7,1.7-1.7V54c0-0.9-0.7-1.7-1.7-1.7l0,0h-19c-0.9,0-1.7,0.7-1.7,1.7l0,0v17
	C99.5,72,100.3,72.7,101.2,72.7L101.2,72.7"/>
<path class="st0" d="M48.2,48.4h19c0.9,0,1.7-0.8,1.7-1.7v-17c0-0.9-0.7-1.7-1.7-1.7l0,0h-19c-0.9,0-1.7,0.7-1.7,1.7v17
	C46.6,47.6,47.3,48.4,48.2,48.4"/>
<path class="st0" d="M74.9,48.4h19c0.9,0,1.7-0.8,1.7-1.7v-17c0-0.9-0.7-1.7-1.7-1.7l0,0h-19c-0.9,0-1.7,0.7-1.7,1.7l0,0v17
	C73.2,47.6,73.9,48.4,74.9,48.4"/>
<path class="st0" d="M101.2,48.4h19c0.9,0,1.7-0.8,1.7-1.7v-17c0-0.9-0.8-1.7-1.7-1.7h-19c-0.9,0-1.7,0.7-1.7,1.7l0,0v17
	C99.5,47.6,100.3,48.4,101.2,48.4"/>
<path class="st0" d="M101.2,24h19c0.9,0,1.7-0.7,1.7-1.7v-17c0-0.9-0.8-1.7-1.7-1.7h-19c-0.9,0-1.7,0.7-1.7,1.7l0,0v17
	C99.5,23.2,100.3,24,101.2,24"/>
<path class="st0" d="M127.7,72.7h19c0.9,0,1.7-0.7,1.7-1.7V54c0-0.9-0.7-1.7-1.7-1.7l0,0h-19c-0.9,0-1.7,0.7-1.7,1.7l0,0v17
	C126.1,72,126.8,72.7,127.7,72.7"/>
</svg>
