<?xml version="1.0" encoding="utf-8"?>
<!-- Generator: Adobe Illustrator 22.0.0, SVG Export Plug-In . SVG Version: 6.00 Build 0)  -->
<svg version="1.1" id="Layer_1" xmlns="http://www.w3.org/2000/svg" xmlns:xlink="http://www.w3.org/1999/xlink" x="0px" y="0px"
	 viewBox="0 0 370 100.7" style="enable-background:new 0 0 370 100.7;" xml:space="preserve">
<style type="text/css">
	.st0{fill:#100E0F;}
</style>
<g>
	<path class="st0" d="M74.3,40.7H44c-0.8,0-1.4,0.6-1.4,1.4v14.8c0,0.8,0.6,1.4,1.4,1.4h11.8v18.4c0,0-2.7,0.9-10,0.9
		c-8.6,0-20.7-3.2-20.7-29.7c0-26.6,12.6-30.1,24.4-30.1c10.2,0,14.6,1.8,17.4,2.7c0.9,0.3,1.7-0.6,1.7-1.4L72,4.8
		c0-0.4-0.1-0.8-0.5-1.1C70.3,2.9,63.4-1,45.8-1C25.6-1,4.9,7.6,4.9,48.9c0,41.3,23.7,47.5,43.7,47.5c16.6,0,26.6-7.1,26.6-7.1
		c0.4-0.2,0.5-0.8,0.5-1.1V42.1C75.7,41.3,75.1,40.7,74.3,40.7z"/>
	<path class="st0" d="M230.3,4c0-0.8-0.6-1.4-1.4-1.4h-17c-0.8,0-1.4,0.6-1.4,1.4c0,0,0,32.9,0,32.9h-26.6V4c0-0.8-0.6-1.4-1.4-1.4
		h-17c-0.8,0-1.4,0.6-1.4,1.4v89.2c0,0.8,0.6,1.4,1.4,1.4h17c0.8,0,1.4-0.6,1.4-1.4V55h26.6c0,0,0,38.1,0,38.1
		c0,0.8,0.6,1.4,1.4,1.4h17.1c0.8,0,1.4-0.6,1.4-1.4V4z"/>
	<g>
		<g>
			<path class="st0" d="M106.4,15.7c0-6.1-4.9-11.1-11-11.1c-6.1,0-11,5-11,11.1c0,6.1,4.9,11.1,11,11.1
				C101.5,26.8,106.4,21.8,106.4,15.7z"/>
			<path class="st0" d="M105.2,74.3c0-2.3,0-41.2,0-41.2c0-0.8-0.6-1.4-1.4-1.4h-17c-0.8,0-1.5,0.8-1.5,1.6c0,0,0,49.5,0,59
				c0,1.7,1.1,2.2,2.5,2.2c0,0,7.3,0,15.3,0c1.7,0,2.1-0.8,2.1-2.3C105.2,89.1,105.2,76.7,105.2,74.3z"/>
		</g>
	</g>
	<path class="st0" d="M295,31.9h-16.9c-0.8,0-1.4,0.6-1.4,1.4V77c0,0-4.3,3.1-10.4,3.1c-6.1,0-7.7-2.8-7.7-8.7c0-6,0-38.1,0-38.1
		c0-0.8-0.6-1.4-1.4-1.4H240c-0.8,0-1.4,0.6-1.4,1.4c0,0,0,23.3,0,41c0,17.7,9.9,22.1,23.5,22.1c11.2,0,20.1-6.2,20.1-6.2
		s0.4,3.2,0.6,3.6c0.2,0.4,0.7,0.8,1.2,0.8l10.9,0c0.8,0,1.4-0.6,1.4-1.4l0-59.9C296.4,32.5,295.8,31.9,295,31.9z"/>
	<path class="st0" d="M341.3,29.9c-9.6,0-16.1,4.3-16.1,4.3V4c0-0.8-0.6-1.4-1.4-1.4h-17.1c-0.8,0-1.4,0.6-1.4,1.4v89.2
		c0,0.8,0.6,1.4,1.4,1.4c0,0,11.9,0,11.9,0c0.5,0,0.9-0.3,1.2-0.8c0.3-0.5,0.7-4.1,0.7-4.1s7,6.6,20.2,6.6
		c15.5,0,24.4-7.9,24.4-35.4C365.1,33.5,350.9,29.9,341.3,29.9z M334.6,80.1c-5.9-0.2-9.8-2.8-9.8-2.8V49c0,0,3.9-2.4,8.7-2.8
		c6.1-0.5,12,1.3,12,15.8C345.4,77.3,342.8,80.4,334.6,80.1z"/>
	<path class="st0" d="M154.2,31.7h-12.8c0,0,0-16.9,0-16.9c0-0.6-0.3-1-1.1-1h-17.4c-0.7,0-1,0.3-1,0.9v17.5c0,0-8.7,2.1-9.3,2.3
		c-0.6,0.2-1,0.7-1,1.4v11c0,0.8,0.6,1.4,1.4,1.4h8.9c0,0,0,11.5,0,26.4c0,19.6,13.7,21.5,23,21.5c4.2,0,9.3-1.4,10.1-1.7
		c0.5-0.2,0.8-0.7,0.8-1.3l0-12.1c0-0.8-0.7-1.4-1.4-1.4c-0.7,0-2.7,0.3-4.6,0.3c-6.3,0-8.4-2.9-8.4-6.7c0-3.8,0-25.1,0-25.1h12.8
		c0.8,0,1.4-0.6,1.4-1.4V33.1C155.6,32.4,155,31.7,154.2,31.7z"/>
</g>
</svg>
