<svg xmlns="http://www.w3.org/2000/svg" width="160" height="177.797" viewBox="0 0 160 177.797"><defs><style>.a,.i{fill:#2f81ff;}.a{opacity:0.35;}.b,.g{fill:#f7f7f7;}.c,.h{fill:#c0d8d8;}.d{fill:#113a52;}.e{fill:#a3ccc7;}.f{fill:#71a1a4;}.g,.h{fill-rule:evenodd;}.j{fill:#fff;}</style></defs><rect class="a" width="160" height="160" rx="80" transform="translate(0 17.45)"/><g transform="translate(17)"><path class="b" d="M-166.034,179.855c-2.236,1.293-2.265,3.377-.046,4.668l30.318,17.639a8.9,8.9,0,0,0,8.057-.009l11.541-6.8c2.235-1.289,2.228-3.377.026-4.657l-30.318-17.64a8.835,8.835,0,0,0-8.041,0Z" transform="translate(194.736 -33.551)"/><path class="c" d="M-166.079,187.237l30.318,17.639a8.132,8.132,0,0,0,4.033.957,8.238,8.238,0,0,0,4.025-.966l11.541-6.8a2.844,2.844,0,0,0,1.678-2.342l.006,2.32a2.839,2.839,0,0,1-1.678,2.342l-11.539,6.8a8.257,8.257,0,0,1-4.032.968,8.145,8.145,0,0,1-4.026-.957l-30.318-17.64a2.823,2.823,0,0,1-1.648-2.309l-.007-2.32A2.81,2.81,0,0,0-166.079,187.237Z" transform="translate(194.736 -36.265)"/><path class="c" d="M-121.264,197.079l4.012-2.329.047-16.491-4.011,2.333Z" transform="translate(184.918 -34.855)"/><path class="d" d="M-127.73,176.813l4.012-2.333-24.361-14.107-4.008,2.331Z" transform="translate(191.431 -31.076)"/><path class="e" d="M-152.1,163.329l-.048,16.49,24.358,14.105.047-16.487Z" transform="translate(191.444 -31.701)"/><path class="c" d="M-196.237-3.291a2.872,2.872,0,0,1,2.891.286L-80.571,62.107a8.861,8.861,0,0,1,4.019,6.959l-.187,99.961a2.83,2.83,0,0,1-1.185,2.6l-4.011,2.332a2.848,2.848,0,0,0,1.185-2.6l.186-99.959a8.864,8.864,0,0,0-4.021-6.962L-197.356-.677a2.878,2.878,0,0,0-2.891-.283Z" transform="translate(201.608 3.564)"/><path class="b" d="M-197.722-.052c-2.234-1.289-4.057-.27-4.065,2.3l-.185,99.961a8.9,8.9,0,0,0,4.038,6.993L-85.16,174.309c2.216,1.28,4.039.24,4.046-2.328l.185-99.957a8.865,8.865,0,0,0-4.02-6.964Z" transform="translate(201.972 2.94)"/><path class="f" d="M-84.383,74.2v92.159l-111.931-64.622V9.575Z" transform="translate(200.776 0.788)"/><path class="g" d="M-180.748,35.486l9.47,5.539V39.2l-9.47-5.541Z" transform="translate(197.487 -4.301)"/><path class="h" d="M-164.18,45.177l12.785,7.482V50.831l-12.785-7.476Z" transform="translate(193.987 -6.35)"/><path class="h" d="M-188.055,37.593l12.16,7.115V42.882l-12.16-7.115Z" transform="translate(199.031 -4.747)"/><path class="h" d="M-169.553,48.419l6.381,3.732V50.323l-6.381-3.73Z" transform="translate(195.122 -7.034)"/><path class="g" d="M-157.991,55.184l7.9,4.624V57.983l-7.9-4.626Z" transform="translate(192.679 -8.464)"/><path class="h" d="M-183.05,46.232l13.821,8.083V52.491L-183.05,44.4Z" transform="translate(197.974 -6.572)"/><path class="h" d="M-162.909,58.01l4.128,2.417V58.6l-4.128-2.413Z" transform="translate(193.718 -9.062)"/><path class="h" d="M-188.055,49.461l9.352,5.473V53.108l-9.352-5.469Z" transform="translate(199.031 -7.255)"/><path class="g" d="M-173.831,57.782l4.914,2.878V58.834l-4.914-2.875Z" transform="translate(196.026 -9.013)"/><path class="h" d="M-164.929,62.992l6.081,3.556V64.723l-6.081-3.555Z" transform="translate(194.145 -10.114)"/><path class="h" d="M-175.353,62.615l10.954,6.407V67.2l-10.954-6.408Z" transform="translate(196.347 -10.034)"/><path class="g" d="M-190.851,63.148l12.841,7.514v1.823l-12.841-7.51Z" transform="translate(199.622 -10.532)"/><path class="h" d="M-188.055,60.889-175.895,68V66.178l-12.16-7.112Z" transform="translate(199.031 -9.67)"/><path class="g" d="M-169.553,71.714l6.381,3.731V73.62l-6.381-3.732Z" transform="translate(195.122 -11.957)"/><path class="h" d="M-157.991,78.477l7.9,4.625V81.276l-7.9-4.623Z" transform="translate(192.679 -13.386)"/><path class="h" d="M-171.487,76.306l11.253,6.58V81.06l-11.253-6.582Z" transform="translate(195.531 -12.926)"/><path class="h" d="M-180.346,75.647l17.675,10.339v1.827l-17.675-10.338Z" transform="translate(197.402 -13.173)"/><path class="h" d="M-180.346,80.907l9.265,5.419v1.827l-9.265-5.421Z" transform="translate(197.402 -14.285)"/><path class="h" d="M-186.134,83.229l16.254,9.505v1.839l-16.254-9.509Z" transform="translate(198.625 -14.776)"/><path class="g" d="M-162.909,96.813l4.128,2.416v1.838l-4.128-2.416Z" transform="translate(193.718 -17.646)"/><path class="h" d="M-178.881,93.191l14.73,8.618v1.826l-14.73-8.618Z" transform="translate(197.093 -16.881)"/><path class="h" d="M-157.426,105.744l4.4,2.574v1.826l-4.4-2.576Z" transform="translate(192.559 -19.533)"/><path class="g" d="M-173.831,102.311l4.914,2.878v1.824l-4.914-2.876Z" transform="translate(196.026 -18.808)"/><path class="h" d="M-164.929,107.522l6.081,3.555V112.9l-6.081-3.558Z" transform="translate(194.145 -19.909)"/><path class="h" d="M-175.353,107.145l10.954,6.407v1.824l-10.954-6.4Z" transform="translate(196.347 -19.829)"/><path class="g" d="M-180.346,110.238l25.535,14.937V127l-25.535-14.94Z" transform="translate(197.402 -20.483)"/><path class="h" d="M-180.346,115.615l9.265,5.421v1.823l-9.265-5.421Z" transform="translate(197.402 -21.619)"/><path class="h" d="M-165.515,124.29l5.635,3.3v1.823l-5.635-3.3Z" transform="translate(194.269 -23.452)"/><path class="h" d="M-154.9,130.5l5.463,3.2v1.827l-5.463-3.2Z" transform="translate(192.025 -24.765)"/><path class="g" d="M-186.134,117.936l16.254,9.511v1.823l-16.254-9.508Z" transform="translate(198.625 -22.109)"/><path class="h" d="M-162.909,131.523l4.128,2.413v1.825l-4.128-2.413Z" transform="translate(193.718 -24.98)"/><path class="i" d="M-105.958,78.276c-1.314,3.317-4.3,3.774-6.667,1.021a11.848,11.848,0,0,1-1.9-10.994c1.315-3.317,4.3-3.774,6.666-1.02A11.843,11.843,0,0,1-105.958,78.276Z" transform="translate(183.626 -11.026)"/><path class="i" d="M-119.627,71.648c-1.315,3.316-4.3,3.775-6.667,1.017a11.843,11.843,0,0,1-1.9-10.994c1.314-3.316,4.3-3.775,6.665-1.018A11.843,11.843,0,0,1-119.627,71.648Z" transform="translate(186.514 -9.625)"/><path class="i" d="M-133.043,64.431c-1.315,3.319-4.3,3.774-6.666,1.018a11.839,11.839,0,0,1-1.906-10.993c1.314-3.316,4.3-3.774,6.667-1.02A11.847,11.847,0,0,1-133.043,64.431Z" transform="translate(189.349 -8.1)"/><path class="c" d="M-88.971,122.527c.027.017.054.031.082.046,6.452,3.57,12.225,14.235,12.9,23.816.034.495.051.974.058,1.443l-6.747,4.227-26.533-16.3,20.207-13.37C-89,122.431-88.983,122.477-88.971,122.527Z" transform="translate(182.372 -23.049)"/><path class="c" d="M-117.347,107.584c-.018-.2-.038-.4-.052-.6a21.546,21.546,0,0,0-2.94-8.53s6.47-4.158,7.717-4.761c2-.965,4.5-.788,7.288.757,6.17,3.416,11.8,12.461,13.976,21.747l-20.206,13.37-5.78-3.55-.323-18.574C-117.561,107.488-117.456,107.531-117.347,107.584Z" transform="translate(184.723 -16.86)"/><path class="c" d="M-131.2,115.315s5.362-3.212,6.724-4.115a4.519,4.519,0,0,1,4.51-.068l.323,18.573-11.069-6.8Z" transform="translate(187.017 -20.553)"/><path class="j" d="M-134.492,120.754c-.484-6.919,2.861-10.168,7.467-7.832-.017-.2-.038-.407-.051-.6-.771-11.04,4.632-16.653,12.066-12.537,6.2,3.439,11.857,12.558,14.012,21.9.027.013.055.027.082.042,6.452,3.574,12.225,14.236,12.9,23.818.034.495.051.974.058,1.445C-87.963,146.982-134.489,120.805-134.492,120.754Z" transform="translate(187.723 -17.988)"/></g></svg>