<svg xmlns="http://www.w3.org/2000/svg" width="160" height="178.347" viewBox="0 0 160 178.347"><defs><style>.a,.g{fill:#2f81ff;}.a{opacity:0.35;}.b{fill:#215151;}.c{fill:#ffe1cc;}.d{fill:#a3ccc7;}.e{fill:#fff;}.f{fill:#c0d8d8;}.h{fill:#f7f7f7;}.i{fill:#71a1a4;}.j{fill:#827c7b;}.k{fill:#d2c8c6;}.l{fill:#1e5d9d;}.m{fill:#072742;}.n{fill:#c1efff;}</style></defs><rect class="a" width="160" height="160" rx="35" transform="translate(0 18)"/><g transform="translate(20)"><path class="b" d="M56.7,170.189a16.763,16.763,0,0,0-4.1.946s.237,2.839-2.208,1.735c-1.656-.789-3.786-3.47-4.417-3.47,0,0-1.735,1.42-.237,4.022a15.82,15.82,0,0,1,1.735,3.865.649.649,0,0,0,.868-.158l-.868-3.391,3.943,1.814a2.73,2.73,0,0,0,2.051-.315,7.574,7.574,0,0,0,3.628-4.574A.368.368,0,0,0,56.7,170.189Z" transform="translate(-13.637 -35.851)"/><path class="c" d="M47.877,144.483l1.42-.946a28.189,28.189,0,0,0-1.893,9.386c-.079,5.363-.158,8.281-1.1,9.386a25.566,25.566,0,0,1,2.839,2.524c.868.946,3.234,1.972,4.653.789a.782.782,0,0,0-.158-1.262c-1.1-.473-2.6-1.42-2.76-3-.237-1.893,4.89-17.351,4.811-22.162s-7.256-2.524-8.991-1.893Z" transform="translate(-13.884 -28.838)"/><path class="b" d="M65.7,178.368a16.762,16.762,0,0,0-4.1.946s.237,2.839-2.208,1.656c-1.656-.789-3.786-3.47-4.417-3.47,0,0-1.735,1.42-.237,4.022a15.82,15.82,0,0,1,1.735,3.865.649.649,0,0,0,.868-.158l-.868-3.391,3.943,1.814a2.73,2.73,0,0,0,2.051-.315,7.574,7.574,0,0,0,3.628-4.574C66.252,178.525,66.015,178.368,65.7,178.368Z" transform="translate(-15.538 -37.563)"/><path class="c" d="M56.977,152.55l1.42-.946a26.042,26.042,0,0,0-1.893,9.386c-.079,5.363-.158,8.281-1.1,9.386a25.566,25.566,0,0,1,2.839,2.524c.868.946,3.234,1.972,4.653.789a.782.782,0,0,0-.158-1.262c-1.1-.473-2.6-1.42-2.76-3-.237-1.893,4.89-17.351,4.811-22.162s-7.177-3.47-8.912-2.76Z" transform="translate(-15.807 -30.438)"/><path class="b" d="M138.8,202.641v18.3l2.366-1.42V201.3Z" transform="translate(-33.43 -42.592)"/><path class="d" d="M5.2,125.556l105.291,60.809,2.366-1.42L7.172,123.9Z" transform="translate(-5.2 -26.237)"/><path class="e" d="M110.57,186.809v18.219L5.2,144.219V126Z" transform="translate(-5.2 -26.681)"/><path class="b" d="M66.391,177.022a2.293,2.293,0,0,0,.789,2.051c.552.473,1.1.237,1.183-.473a2.293,2.293,0,0,0-.789-2.051A.691.691,0,0,0,66.391,177.022Z" transform="translate(-18.122 -37.321)"/><path class="b" d="M57.391,172.117a2.293,2.293,0,0,0,.789,2.051c.552.473,1.1.237,1.183-.473a2.293,2.293,0,0,0-.789-2.051C58.1,171.249,57.548,171.407,57.391,172.117Z" transform="translate(-16.221 -36.281)"/><path class="b" d="M48.391,167.222a2.293,2.293,0,0,0,.789,2.051c.552.473,1.1.237,1.183-.394a2.293,2.293,0,0,0-.789-2.051C49.1,166.354,48.548,166.512,48.391,167.222Z" transform="translate(-14.319 -35.251)"/><path class="b" d="M39.491,162.307a2.293,2.293,0,0,0,.789,2.051c.552.473,1.1.237,1.183-.473a2.293,2.293,0,0,0-.789-2.051C40.122,161.361,39.569,161.6,39.491,162.307Z" transform="translate(-12.438 -34.201)"/><path class="b" d="M30.491,157.322a2.293,2.293,0,0,0,.789,2.051c.552.473,1.1.237,1.183-.473a2.293,2.293,0,0,0-.789-2.051A.691.691,0,0,0,30.491,157.322Z" transform="translate(-10.537 -33.158)"/><path class="b" d="M21.491,152.422a2.293,2.293,0,0,0,.789,2.051c.552.473,1.1.237,1.183-.394a2.293,2.293,0,0,0-.789-2.051C22.2,151.554,21.648,151.712,21.491,152.422Z" transform="translate(-8.635 -32.123)"/><path class="b" d="M12.491,147.507a2.293,2.293,0,0,0,.789,2.051c.552.473,1.1.237,1.183-.473a2.293,2.293,0,0,0-.789-2.051C13.2,146.561,12.648,146.8,12.491,147.507Z" transform="translate(-6.733 -31.073)"/><path class="d" d="M134.912,200.416l-14.512-8.36,2.051-1.656,14.906,8.676Z" transform="translate(-29.542 -40.289)"/><path class="f" d="M134.912,200.86v18.219l-14.512-8.36V192.5Z" transform="translate(-29.542 -40.732)"/><path class="e" d="M125.283,212.26a1.557,1.557,0,0,1-.946-.473,1.536,1.536,0,0,1-.394-1.972l1.656-2.208c-1.183-1.814-1.341-3.943-.315-5.205a2.892,2.892,0,0,1,2.6-1.1,4.685,4.685,0,0,1,3.076,1.577,7.415,7.415,0,0,1,1.893,3.313,3.688,3.688,0,0,1-.552,3.076,2.892,2.892,0,0,1-2.6,1.1,5.95,5.95,0,0,1-1.893-.631l-1.656,2.208A.876.876,0,0,1,125.283,212.26Zm1.735-8.124a1.771,1.771,0,0,0-.237,1.577,3.51,3.51,0,0,0,.946,1.656,2.74,2.74,0,0,0,1.577.789,1.427,1.427,0,0,0,1.341-.552c.631-.789.315-2.208-.631-3.234a2.74,2.74,0,0,0-1.577-.789A1.492,1.492,0,0,0,127.018,204.137Z" transform="translate(-30.245 -42.589)"/><path class="g" d="M48.409,141.911c-1.656-1.183-5.679-4.811-5.679-4.811l-.789,6.941c-4.811,4.5-11.121-1.735-11.2-1.814h0a9.244,9.244,0,0,0,1.893,11.752c5.836,5.205,12.7,2.445,19.875-3.549C52.589,150.429,53.93,145.7,48.409,141.911Z" transform="translate(-10.315 -29.026)"/><path class="f" d="M48.468,143.188a.223.223,0,0,0,0,.394L50.834,145a.871.871,0,0,0,.631,0l1.972-1.1a.223.223,0,0,0,0-.394l-2.366-1.42a.871.871,0,0,0-.631,0Z" transform="translate(-14.318 -30.067)"/><path class="h" d="M64.86,140.607,50.9,132.168a.589.589,0,0,0-.71,0l-9.938,5.758q-.355.237,0,.473l13.96,8.439a.589.589,0,0,0,.71,0l9.938-5.757C65.018,140.923,65.1,140.765,64.86,140.607ZM51.689,141.79l-1.972,1.1a.871.871,0,0,1-.631,0l-2.366-1.42a.223.223,0,0,1,0-.394l1.972-1.1a.871.871,0,0,1,.631,0l2.366,1.42C51.925,141.475,51.846,141.633,51.689,141.79Zm6.152,2.366L44.827,136.27l5.205-3,13.014,7.887Z" transform="translate(-12.569 -27.959)"/><path class="f" d="M40,139.8h0l.079.079h0l13.96,8.439a.077.077,0,0,1,.079.079h.631l9.938-5.758c.079-.079.158-.158.158-.237v.71c0,.079-.079.158-.158.237l-9.938,5.758H54.2a.077.077,0,0,1-.079-.079l-13.96-8.439h0L40,139.8Z" transform="translate(-12.553 -29.597)"/><path class="f" d="M45.7,136.355l13.566,8.2,5.442-3.155-13.566-8.2Z" transform="translate(-13.758 -28.202)"/><path class="b" d="M46,136.487v.158h0l.473.315h0l.789-.473v.079h0l.71.394h.079v.158h0l.315.237h0l.079-.079v.158h0l.079.079h0l-.473.315h-.237l-.631-.394h0l.394-.237a.077.077,0,0,0,.079-.079v-.158a.077.077,0,0,1-.079.079l-.473.315h-.315l-.631-.394h0v.158h0l.631.394h.079v.158h0l.631.394h.079v.158h0l.631.394h.079v.158h0l.631.394H49v.158h0l4.1,2.524h.079v.158h0l.631.394h.079v.158h0l.631.394H54.6v.158h0l.631.394h.079v.158h0l.631.394h.079v.158h0l.473.315h0l.473-.315a.077.077,0,0,0,.079-.079v-.158h0l.473-.315a.077.077,0,0,0,.079-.079v-.158l.158.079h0l.473-.315a.077.077,0,0,0,.079-.079v-.079h0l.473-.315a.077.077,0,0,0,.079-.079v-.158h0l.473-.315a.077.077,0,0,0,.079-.079v-.158a.077.077,0,0,1-.079.079l-.473.315h-.237l-1.341-.789h0l.394-.237a.077.077,0,0,0,.079-.079v-.158l.473.315h.079v.158h0l.631.394h0l.473-.315a.077.077,0,0,0,.079-.079v-.158l.315.158h0l.473-.315a.077.077,0,0,0,.079-.079v-.079l-.473.315H59.57l-.631-.394h0l.394-.237a.077.077,0,0,0,.079-.079v-.158l-.079.079-.473.315h-.315l-.631-.394h0l.394-.237a.077.077,0,0,0,.079-.079v-.158a.077.077,0,0,1-.079.079l-.473.315H57.6l-.631-.394h0l.394-.237a.077.077,0,0,0,.079-.079v-.158l-.079.079-.473.315h-.315l-.631-.394h0l.394-.237a.077.077,0,0,0,.079-.079v-.158h0l-.473.315h-.315L55,139.011h0l.394-.237a.077.077,0,0,0,.079-.079v-.158h0l-.473.315h-.237l-.631-.394h0l.394-.237.079-.079v-.158a.077.077,0,0,1-.079.079l-.473.315h-.315l-.631-.394h0l.394-.237v-.237a.077.077,0,0,1-.079.079l-.473.315h-.237l-.631-.394h0l.394-.237v-.237a.077.077,0,0,1-.079.079l-.473.315H51.6l-.631-.394h0l.394-.237a.077.077,0,0,0,.079-.079v-.158a.077.077,0,0,1-.079.079l-.473.315h-.315l-.631-.394h0l.394-.237a.077.077,0,0,0,.079-.079v-.158l-.079.079-.473.315h-.315l-.631-.394h0l.394-.237a.077.077,0,0,0,.079-.079v-.158a.077.077,0,0,1-.079.079l-.473.315h-.315l-.631-.394h0l.394-.237a.077.077,0,0,0,.079-.079v-.158l-.079.079-.473.315H47.5l-.631-.394h0l.394-.237.079-.079v-.158a.077.077,0,0,1-.079.079l-.473.315h-.237l-.631-.394h0l.394-.237a.077.077,0,0,0,.079-.079V134.2a.077.077,0,0,1-.079.079l-.473.315h-.315L44.9,134.2h0v.158h0l.631.394h0v.079h0l.631.394h.079v.158h0l.237.158h0l5.6.079h-.237l-2.051-1.262h0v.158h0l.631.394h0l-.473.315h-.237l-.631-.394h0v.158h0l.394.237h0l-1.262.71H47.9l-.473-.315h0v.158h0l.394.237h0l-1.262.71H46.32l-.473-.315c.158.158.158.158.158.079Zm3.155.158.394-.237.079-.079v-.079h0l.473-.315a.077.077,0,0,0,.079-.079V135.7l.237.158h0l.868-.237a.077.077,0,0,0,.079-.079v-.158l.552.315H52v.158h0l.079.079h0l-.631.394v.158l.237-.158v.158h0l.237.158h0l-.473.315h-.315l-1.183-.71h0v.158h0l.552.315h0l-.473.315h-.315l-.552-.394Z" transform="translate(-13.589 -28.414)"/><path class="b" d="M49.191,136.473h0L49.9,136v.158h0l.631.394h0l-.473.315h-.315Z" transform="translate(-14.488 -28.794)"/><path class="b" d="M50.925,135.637h0v.079h0l.394.237h0l-.473.315h-.315l-.631-.394h0l.394-.237a.077.077,0,0,0,.079-.079V135.4l.237.158h0c.237.079.237.079.315.079Z" transform="translate(-14.645 -28.667)"/><path class="b" d="M51.673,135.258h0l.079-.158.868.552h0l-.473.315h-.315l-.631-.394h0Z" transform="translate(-14.92 -28.604)"/><path class="b" d="M51.7,137.994h0l.394-.237a.077.077,0,0,0,.079-.079V137.6l.631.394h.079v.158h0l-.473.315h-.237l-.473-.473Z" transform="translate(-15.025 -29.132)"/><path class="b" d="M53.01,139.358V139.2l.315.237H53.4v.158h0l.237.158h0l-.473.315h-.237l-.631-.394h0l.71-.315Z" transform="translate(-15.152 -29.47)"/><path class="b" d="M54.331,140.768l-.631-.394h0l.394-.237a.077.077,0,0,0,.079-.079V139.9l.315.237h.079v.158h0l.237.158h0l-.473.315h0Z" transform="translate(-15.448 -29.618)"/><path class="b" d="M55.431,141.368l-.631-.394h0l.394-.237a.077.077,0,0,0,.079-.079V140.5l.315.237h.079v.158h0l.237.158h0l-.473.315h-.158c.237.079.237.079.158,0Z" transform="translate(-15.681 -29.745)"/><path class="b" d="M56.531,142.068l-.631-.394h0l.394-.237a.077.077,0,0,0,.079-.079V141.2l.315.237h.079v.158h0l.237.158h0l-.473.315h0Z" transform="translate(-15.913 -29.893)"/><path class="b" d="M57.631,142.768,57,142.373h0l.394-.237a.077.077,0,0,0,.079-.079V141.9l.315.237h.079v.158h0l.237.158h0l-.473.315h0Z" transform="translate(-16.145 -30.041)"/><path class="b" d="M58.731,143.368l-.631-.394h0l.394-.237a.077.077,0,0,0,.079-.079V142.5l.315.237h.079v.158h0l.237.158h0l-.473.315h-.158c.237.079.237.079.158,0Z" transform="translate(-16.378 -30.167)"/><path class="b" d="M59.931,144.068l-.631-.394h0l.394-.237a.077.077,0,0,0,.079-.079V143.2l.315.237h.079v.158h0l.237.158h0l-.473.315h0Z" transform="translate(-16.631 -30.315)"/><path class="b" d="M61.031,144.768l-.631-.394h0l.394-.237a.077.077,0,0,0,.079-.079V143.9l.315.237h.079v.158h0l.237.158h0l-.473.315h0Z" transform="translate(-16.864 -30.463)"/><path class="b" d="M62.131,145.468l-.631-.394h0l.394-.237.079-.079V144.6l.315.237h.079v.158h0l.237.158h0l-.473.315h0Z" transform="translate(-17.096 -30.611)"/><path class="b" d="M63.641,142.273l.079.079h0l-.473.315h-.315l-.631-.394h0l.394-.237.079-.079V141.8l.473.315h.079l.315.158Z" transform="translate(-17.265 -30.019)"/><path class="b" d="M62.562,141.573l.079.079h0l-.473.315h-.237l-.631-.394h0l.394-.237a.077.077,0,0,0,.079-.079V141.1l.473.315h.079l.237.158Z" transform="translate(-17.054 -29.872)"/><path class="b" d="M61.462,140.973l.079.079h0l-.473.315h-.237l-.631-.394h0l.394-.237a.077.077,0,0,0,.079-.079V140.5l.473.315h.079l.237.158Z" transform="translate(-16.822 -29.745)"/><path class="b" d="M60.341,140.273l.079.079h0l-.473.315h-.315L59,140.273h0l.394-.237a.077.077,0,0,0,.079-.079V139.8l.473.315h.079l.315.158Z" transform="translate(-16.568 -29.597)"/><path class="b" d="M59.241,139.573l.079.079h0l-.473.315h-.315l-.631-.394h0l.394-.237a.077.077,0,0,0,.079-.079V139.1l.473.315h.079l.315.158Z" transform="translate(-16.336 -29.449)"/><path class="b" d="M58.183,138.952l.079.079h0l-.473.315h-.315L57,138.873h0l.394-.237a.077.077,0,0,0,.079-.079V138.4l.473.315h.079l.158.237Z" transform="translate(-16.145 -29.301)"/><path class="b" d="M57.041,138.273l.079.079h0l-.473.315h-.315l-.631-.394h0l.394-.237a.077.077,0,0,0,.079-.079V137.8l.473.315h.079l.315.158Z" transform="translate(-15.871 -29.174)"/><path class="b" d="M55.941,137.573l.079.079h0l-.473.315h-.315l-.631-.394h0l.394-.237a.077.077,0,0,0,.079-.079V137.1l.473.315h.079l.315.158Z" transform="translate(-15.638 -29.026)"/><path class="b" d="M54.862,136.973l.079.079h0l-.473.315h-.237l-.631-.394h0l.394-.237a.077.077,0,0,0,.079-.079V136.5l.473.315h.079l.237.158h0c-.079-.079,0-.079,0,0Z" transform="translate(-15.427 -28.9)"/><path class="b" d="M53.789,137.558V137.4l.315.158h.079v.158h0l.237.158h0l-.473.315h-.315L53,137.794h0l.789-.237Z" transform="translate(-15.3 -29.09)"/><path class="b" d="M53.9,139.373l.394-.237a.077.077,0,0,0,.079-.079V138.9h0l.631.394h.079v.158h0l-.315.315h-.315l-.552-.394Z" transform="translate(-15.49 -29.407)"/><path class="b" d="M55.091,140.094c0-.079-.079-.079,0,0l.394-.237a.077.077,0,0,0,.079-.079V139.7h0l.631.394h.079v.158h0l-.473.315h-.237Z" transform="translate(-15.735 -29.576)"/><path class="b" d="M56.191,140.673h0l.394-.237a.077.077,0,0,0,.079-.079V140.2h0l.631.394h.079v.158h0l-.473.315h-.315Z" transform="translate(-15.967 -29.681)"/><path class="b" d="M57.3,141.394h0l.394-.237a.077.077,0,0,0,.079-.079V141h0l.631.394h.079v.158h0l-.473.315h-.237Z" transform="translate(-16.209 -29.85)"/><path class="b" d="M58.4,142.094h0l.394-.237a.077.077,0,0,0,.079-.079V141.7h0l.631.394h.079v.158h0l-.473.315h-.315Z" transform="translate(-16.441 -29.998)"/><path class="b" d="M59.5,142.694h0l.394-.237a.077.077,0,0,0,.079-.079V142.3h0l.631.394h.079v.158h0l-.473.315h-.315Z" transform="translate(-16.674 -30.125)"/><path class="b" d="M60.6,143.373h0l.394-.237a.077.077,0,0,0,.079-.079V142.9h0l.631.394h.079v.158h0l-.473.315h-.237Z" transform="translate(-16.906 -30.252)"/><path class="b" d="M62.2,142.494l.237.158h0l-.473.315h-.237l-.631-.394h0l.394-.237a.077.077,0,0,0,.079-.079V142.1l.315.158h.079l.237.237Z" transform="translate(-17.012 -30.083)"/><path class="b" d="M61.083,141.915l.237.158h0l-.473.315h-.315l-.631-.394h0l.394-.237.079-.079V141.6l.315.158h.079l.315.158Z" transform="translate(-16.758 -29.977)"/><path class="b" d="M60,141.194l.237.158h0l-.473.315h-.237l-.631-.394h0l.394-.237a.077.077,0,0,0,.079-.079V140.8l.315.158h.079l.237.237h0c-.079-.079,0-.079,0,0Z" transform="translate(-16.547 -29.808)"/><path class="b" d="M58.9,140.515l.237.158h0l-.473.315h-.237l-.631-.394h0l.394-.237.079-.079V140.2l.315.158h.079l.237.158Z" transform="translate(-16.314 -29.681)"/><path class="b" d="M57.783,139.794l.237.158h0l-.473.315h-.315l-.631-.394h0l.394-.237V139.4l.315.158h.079l.394.237Z" transform="translate(-16.061 -29.512)"/><path class="b" d="M56.7,139.194l.237.158h0l-.473.315h-.237l-.631-.394h0l.394-.237a.077.077,0,0,0,.079-.079V138.8l.315.158h.079l.237.237h0c-.079-.079-.079,0,0,0Z" transform="translate(-15.85 -29.386)"/><path class="b" d="M55.583,138.494l.237.158h0l-.473.315h-.315l-.631-.394h0l.394-.237.079-.079V138.1l.315.158h.079l.315.237Z" transform="translate(-15.596 -29.238)"/><path class="b" d="M63.3,143.215l.237.158h0l-.473.315h-.237l-.631-.394h0l.394-.237a.077.077,0,0,0,.079-.079V142.9l.315.158h.079l.237.158Z" transform="translate(-17.244 -30.252)"/><path class="b" d="M63.041,144.173h0l-.473.315h-.237l-.631-.394h0l.394-.237a.077.077,0,0,0,.079-.079V143.7h0l.631.394h.079l.158.079Z" transform="translate(-17.139 -30.421)"/><path class="b" d="M52.8,138.694h0l.394-.237.079-.079V138.3h0l.631.394h.079v.158h0l-.473.315h-.315Z" transform="translate(-15.258 -29.28)"/><path class="b" d="M55.1,135.894l.237.158h0l-.473.315h-.237L54,135.973h0l.394-.237a.077.077,0,0,0,.079-.079V135.5l.315.158h.079l.237.237Z" transform="translate(-15.511 -28.688)"/><path class="b" d="M56.183,136.594l.237.158h0l-.473.315h-.315L55,136.673h0l.394-.237.079-.079V136.2l.315.158h.079l.315.237Z" transform="translate(-15.723 -28.836)"/><path class="b" d="M57.283,137.294l.237.158h0l-.473.315h-.315l-.631-.394h0l.394-.237a.077.077,0,0,0,.079-.079V136.9l.315.158h.079l.315.237Z" transform="translate(-15.955 -28.984)"/><path class="b" d="M58.4,138.015l.237.158h0l-.473.315h-.237l-.631-.394h0l.394-.237a.077.077,0,0,0,.079-.079V137.7l.315.158h.079l.237.158Z" transform="translate(-16.209 -29.153)"/><path class="b" d="M59.5,138.594l.237.158h0l-.473.315h-.237l-.631-.394h0l.394-.237.079-.079V138.2l.315.158h.079l.237.237Z" transform="translate(-16.441 -29.259)"/><path class="b" d="M60.6,139.294l.237.158h0l-.473.315h-.237l-.631-.394h0l.394-.237a.077.077,0,0,0,.079-.079V138.9l.315.158h.079l.237.237Z" transform="translate(-16.674 -29.407)"/><path class="b" d="M61.7,140.015l.237.158h0l-.473.315h-.237l-.631-.394h0l.394-.237.079-.079V139.7l.315.158h.079l.237.158Z" transform="translate(-16.906 -29.576)"/><path class="b" d="M62.783,140.594l.237.158h0l-.473.315h-.315l-.631-.394h0l.394-.237a.077.077,0,0,0,.079-.079V140.2l.315.158h.079l.315.237Z" transform="translate(-17.117 -29.681)"/><path class="b" d="M63.9,141.294l.237.158h0l-.473.315h-.237l-.631-.394h0l.394-.237a.077.077,0,0,0,.079-.079V140.9l.315.158h.079l.237.237Z" transform="translate(-17.371 -29.829)"/><path class="b" d="M65.083,141.994l.237.158h0l-.473.315h-.315l-.631-.394h0l.394-.237.079-.079V141.6l.315.158h.079l.315.237Z" transform="translate(-17.603 -29.977)"/><path class="b" d="M66.291,143.373h0l.394-.237a.077.077,0,0,0,.079-.079V142.9l.315.158h.079v.158h0l.237.158h0l-.473.315h-.237Z" transform="translate(-18.101 -30.252)"/><path class="b" d="M65.731,143.089l-.631-.394h0l.394-.237a.077.077,0,0,0,.079-.079V142.3l.315.158h.079v.158h0l.237.158h0l-.473.315h-.158c.237.079.237.079.158,0Z" transform="translate(-17.857 -30.125)"/><path class="b" d="M64.92,143.073l-.473.315h-.315l-.631-.394h0l.394-.237a.077.077,0,0,0,.079-.079V142.6l.473.315h.079v.158h.394Z" transform="translate(-17.519 -30.188)"/><path class="b" d="M64.383,143.894l.237.158h0l-.473.315h-.315l-.631-.394h0l.394-.237.079-.079V143.5l.315.158h.079l.315.237Z" transform="translate(-17.455 -30.379)"/><path class="b" d="M65.289,145.046l-.789-.473h0l.394-.237.079-.079V144.1l1.025.631h0l-.473.315h-.158c0,.079,0,.079-.079,0Z" transform="translate(-17.73 -30.505)"/><path class="b" d="M64.141,145.583l-1.341-.789h0l.394-.237a.077.077,0,0,0,.079-.079V144.4h0l.631.394h.079v.158h0l.71.394h0l-.473.315h-.158c.158-.079.158-.079.079-.079Z" transform="translate(-17.371 -30.569)"/><path class="b" d="M63.389,146.068h-.158l-.631-.394h0l.394-.237.079-.079V145.2l.868.552h0Z" transform="translate(-17.329 -30.738)"/><path class="b" d="M62,146.473h0l.394-.237.079-.079V146h0l.631.394h0v.079l-.473.315h-.315Z" transform="translate(-17.202 -30.907)"/><path class="b" d="M60.9,145.873h0l.394-.237a.077.077,0,0,0,.079-.079V145.4h0l.631.394h.079v.158h0l-.473.315h-.315Z" transform="translate(-16.969 -30.78)"/><path class="b" d="M59.8,145.173h0l.394-.237a.077.077,0,0,0,.079-.079V144.7h0l.631.394h.079v.158h0l-.473.315h-.237Z" transform="translate(-16.737 -30.632)"/><path class="b" d="M58.7,144.473h0l.394-.237.079-.079V144h0l.631.394h.079v.158h0l-.473.315h-.315Z" transform="translate(-16.505 -30.484)"/><path class="b" d="M57.6,143.873h0l.394-.237a.077.077,0,0,0,.079-.079V143.4h0l.631.394h.079v.158h0l-.473.315h-.237Z" transform="translate(-16.272 -30.358)"/><path class="b" d="M52,140.473h0l.394-.237a.077.077,0,0,0,.079-.079V140h0l.631.394h.079v.158h0l.631.394h.079v.158h0l.631.394H54.6v.158h0l.631.394h.079v.158h0l.631.394h.079v.158h0l-.473.315h-.315Z" transform="translate(-15.089 -29.639)"/><path class="b" d="M50.9,139.773h0l.394-.237a.077.077,0,0,0,.079-.079V139.3l.631.394h.079v.158h0l-.473.315h-.315Z" transform="translate(-14.856 -29.491)"/><path class="b" d="M50.189,138.758V138.6l.237.158H50.5v.158h0l.315.237h0l-.473.315h-.315l-.631-.394h0l.789-.315C50.11,138.837,50.189,138.837,50.189,138.758Z" transform="translate(-14.539 -29.343)"/><path class="b" d="M50.137,138.252h0l.394-.315.079-.079V137.7l.473.315h.079v.158h0l.631.394h.079v.158h0l.237.158h0l-.473.315H51.32l-1.025-.631h0l.394-.237a.077.077,0,0,0,.079-.079v-.158a.077.077,0,0,1-.079.079l-.473.315H49.9Z" transform="translate(-14.645 -29.153)"/><path class="b" d="M49.4,137.752h0l.394-.237.079-.079v-.158h0l.079-.079v.158h0l.315.158h0l-.473.315h-.237Z" transform="translate(-14.539 -29.047)"/><path class="b" d="M48.2,136.973h0l.394-.237a.077.077,0,0,0,.079-.079V136.5h.079v.158h0l.631.394h0l-.473.315h-.315Z" transform="translate(-14.286 -28.9)"/><path class="i" d="M52.084,133.615c-.079,0-.079.079,0,.079l.631.394h.158l.473-.315c.079,0,.079-.079,0-.079l-.631-.394h-.158Z" transform="translate(-15.094 -28.223)"/><path class="i" d="M53.184,134.237c-.079,0-.079.079,0,.079l.631.394h.158l.473-.315c.079,0,.079-.079,0-.079L53.815,134h-.158Z" transform="translate(-15.327 -28.371)"/><path class="i" d="M54.284,134.915c-.079,0-.079.079,0,.079l.631.394h.158l.473-.315c.079,0,.079-.079,0-.079l-.631-.394h-.158Z" transform="translate(-15.559 -28.498)"/><path class="i" d="M55.384,135.615c-.079,0-.079.079,0,.079l.631.394h.158l.473-.315c.079,0,.079-.079,0-.079l-.631-.394h-.158Z" transform="translate(-15.791 -28.646)"/><path class="i" d="M56.484,136.315c-.079,0-.079.079,0,.079l.631.394h.158l.473-.315c.079,0,.079-.079,0-.079L57.115,136h-.158Z" transform="translate(-16.024 -28.794)"/><path class="i" d="M57.584,136.915c-.079,0-.079.079,0,.079l.631.394h.158l.473-.315c.079,0,.079-.079,0-.079l-.631-.394h-.158Z" transform="translate(-16.256 -28.921)"/><path class="i" d="M58.684,137.615c-.079,0-.079.079,0,.079l.631.394h.158l.473-.315c.079,0,.079-.079,0-.079l-.631-.394h-.158Z" transform="translate(-16.489 -29.069)"/><path class="i" d="M59.784,138.315c-.079,0-.079.079,0,.079l.631.394h.158l.473-.315c.079,0,.079-.079,0-.079L60.415,138h-.158Z" transform="translate(-16.721 -29.217)"/><path class="i" d="M60.884,138.915c-.079,0-.079.079,0,.079l.631.394h.158l.473-.315c.079,0,.079-.079,0-.079l-.631-.394h-.158Z" transform="translate(-16.954 -29.343)"/><path class="i" d="M61.984,139.615c-.079,0-.079.079,0,.079l.631.394h.158l.473-.315c.079,0,.079-.079,0-.079l-.631-.394h-.158Z" transform="translate(-17.186 -29.491)"/><path class="i" d="M63.184,140.315c-.079,0-.079.079,0,.079l.631.394h.158l.473-.315c.079,0,.079-.079,0-.079L63.815,140h-.158Z" transform="translate(-17.44 -29.639)"/><path class="i" d="M64.284,141.015c-.079,0-.079.079,0,.079l.631.394h.158l.473-.315c.079,0,.079-.079,0-.079l-.631-.394h-.158Z" transform="translate(-17.672 -29.787)"/><path class="i" d="M65.384,141.637c-.079,0-.079.079,0,.079l.631.394h.158l.473-.237c.079,0,.079-.079,0-.079l-.631-.394h-.158Z" transform="translate(-17.904 -29.935)"/><path class="i" d="M66.484,142.315c-.079,0-.079.079,0,.079l.631.394h.158l.473-.315c.079,0,.079-.079,0-.079L67.115,142h-.158Z" transform="translate(-18.137 -30.062)"/><path class="i" d="M67.584,143.015c-.079,0-.079.079,0,.079l.631.394h.158l.473-.315c.079,0,.079-.079,0-.079l-.631-.394h-.158Z" transform="translate(-18.369 -30.21)"/><path class="i" d="M51.084,134.115c-.079,0-.079.079,0,.079l2.051,1.262h.158l.473-.315c.079,0,.079-.079,0-.079L51.715,133.8h-.158Z" transform="translate(-14.883 -28.329)"/><path class="i" d="M54.084,135.915c-.079,0-.079.079,0,.079l.631.394h.158l.473-.315c.079,0,.079-.079,0-.079l-.631-.394h-.158Z" transform="translate(-15.517 -28.709)"/><path class="i" d="M55.184,136.615c-.079,0-.079.079,0,.079l.631.394h.158l.473-.315c.079,0,.079-.079,0-.079l-.631-.394h-.158Z" transform="translate(-15.749 -28.857)"/><path class="i" d="M56.284,137.315c-.079,0-.079.079,0,.079l.631.394h.158l.473-.315c.079,0,.079-.079,0-.079L56.915,137h-.158Z" transform="translate(-15.982 -29.005)"/><path class="i" d="M57.384,137.915c-.079,0-.079.079,0,.079l.631.394h.158l.473-.315c.079,0,.079-.079,0-.079l-.631-.394h-.158Z" transform="translate(-16.214 -29.132)"/><path class="i" d="M58.484,138.615c-.079,0-.079.079,0,.079l.631.394h.158l.473-.315c.079,0,.079-.079,0-.079l-.631-.394h-.158Z" transform="translate(-16.446 -29.28)"/><path class="i" d="M59.584,139.315c-.079,0-.079.079,0,.079l.631.394h.158l.473-.315c.079,0,.079-.079,0-.079L60.215,139h-.158Z" transform="translate(-16.679 -29.428)"/><path class="i" d="M60.684,139.915c-.079,0-.079.079,0,.079l.631.394h.158l.473-.315c.079,0,.079-.079,0-.079l-.631-.394h-.158Z" transform="translate(-16.911 -29.555)"/><path class="i" d="M61.784,140.615c-.079,0-.079.079,0,.079l.631.394h.158l.473-.315c.079,0,.079-.079,0-.079l-.631-.394h-.158Z" transform="translate(-17.144 -29.702)"/><path class="i" d="M62.884,141.315c-.079,0-.079.079,0,.079l.631.394h.158l.473-.315c.079,0,.079-.079,0-.079L63.515,141h-.158Z" transform="translate(-17.376 -29.85)"/><path class="i" d="M64.084,142.015c-.079,0-.079.079,0,.079l.631.394h.158l.473-.315c.079,0,.079-.079,0-.079l-.631-.394h-.158Z" transform="translate(-17.63 -29.998)"/><path class="i" d="M65.184,142.615c-.079,0-.079.079,0,.079l.631.394h.158l.473-.315c.079,0,.079-.079,0-.079l-.631-.394h-.158Z" transform="translate(-17.862 -30.125)"/><path class="i" d="M66.284,143.315c-.079,0-.079.079,0,.079l.552.394h.158l.473-.315c.079,0,.079-.079,0-.079L66.836,143h-.158Z" transform="translate(-18.095 -30.273)"/><path class="i" d="M50.184,134.715c-.079,0-.079.079,0,.079l.631.394h.158l.473-.315c.079,0,.079-.079,0-.079l-.631-.394h-.158Z" transform="translate(-14.693 -28.456)"/><path class="i" d="M51.284,135.415c-.079,0-.079.079,0,.079l.631.394h.158l.473-.315c.079,0,.079-.079,0-.079l-.631-.394h-.158Z" transform="translate(-14.925 -28.604)"/><path class="i" d="M48.284,135.71c-.079,0-.079.079,0,.079l.473.315h.158l1.262-.71c.079,0,.079-.079,0-.079L49.7,135h-.158Z" transform="translate(-14.291 -28.583)"/><path class="i" d="M50.084,135.815c-.079,0-.079.079,0,.079l.631.394h.158l.473-.315c.079,0,.079-.079,0-.079l-.631-.394h-.158Z" transform="translate(-14.672 -28.688)"/><path class="i" d="M53.684,136.815c-.079,0-.079.079,0,.079l.631.394h.158l.473-.315c.079,0,.079-.079,0-.079l-.631-.394h-.158Z" transform="translate(-15.432 -28.9)"/><path class="i" d="M51.584,136.589c-.079,0-.079.079,0,.079l1.183.71h.158l.473-.315c.079,0,.079-.079,0-.079l-.473-.315.631-.394c.079,0,.079-.079,0-.079l-.631-.394h-.158l-.789.473-.158.079Z" transform="translate(-14.989 -28.752)"/><path class="i" d="M54.784,137.515c-.079,0-.079.079,0,.079l.631.394h.158l.473-.315c.079,0,.079-.079,0-.079l-.631-.394h-.158Z" transform="translate(-15.665 -29.047)"/><path class="i" d="M55.884,138.115c-.079,0-.079.079,0,.079l.631.394h.158l.473-.315c.079,0,.079-.079,0-.079l-.631-.394h-.158Z" transform="translate(-15.897 -29.174)"/><path class="i" d="M56.984,138.815c-.079,0-.079.079,0,.079l.631.394h.158l.473-.315c.079,0,.079-.079,0-.079l-.631-.394h-.158Z" transform="translate(-16.13 -29.322)"/><path class="i" d="M58.084,139.515c-.079,0-.079.079,0,.079l.631.394h.158l.473-.315c.079,0,.079-.079,0-.079l-.631-.394h-.158Z" transform="translate(-16.362 -29.47)"/><path class="i" d="M59.184,140.215c-.079,0-.079.079,0,.079l.631.394h.158l.473-.315c.079,0,.079-.079,0-.079l-.631-.394h-.158Z" transform="translate(-16.594 -29.618)"/><path class="i" d="M60.284,140.815c-.079,0-.079.079,0,.079l.631.394h.158l.473-.315c.079,0,.079-.079,0-.079l-.631-.394h-.158Z" transform="translate(-16.827 -29.745)"/><path class="i" d="M61.384,141.515c-.079,0-.079.079,0,.079l.631.394h.158l.473-.315c.079,0,.079-.079,0-.079l-.631-.394h-.158Z" transform="translate(-17.059 -29.893)"/><path class="i" d="M62.484,142.215c-.079,0-.079.079,0,.079l.631.394h.158l.473-.315c.079,0,.079-.079,0-.079l-.631-.394h-.158Z" transform="translate(-17.292 -30.041)"/><path class="i" d="M63.584,142.815c-.079,0-.079.079,0,.079l.631.394h.158l.473-.315c.079,0,.079-.079,0-.079l-.631-.394h-.158Z" transform="translate(-17.524 -30.167)"/><path class="i" d="M64.784,143.515c-.079,0-.079.079,0,.079l1.341.789h.158l.473-.315c.079,0,.079-.079,0-.079l-1.341-.789h-.158Z" transform="translate(-17.778 -30.315)"/><path class="i" d="M53.384,137.815c-.079,0-.079.079,0,.079l.631.394h.158l.473-.315c.079,0,.079-.079,0-.079l-.631-.394h-.158Z" transform="translate(-15.369 -29.111)"/><path class="i" d="M54.584,138.515c-.079,0-.079.079,0,.079l.631.394h.158l.473-.315c.079,0,.079-.079,0-.079l-.631-.394h-.158Z" transform="translate(-15.622 -29.259)"/><path class="i" d="M55.684,139.115c-.079,0-.079.079,0,.079l.631.394h.158l.473-.315c.079,0,.079-.079,0-.079l-.631-.394h-.158Z" transform="translate(-15.855 -29.386)"/><path class="i" d="M56.784,139.815c-.079,0-.079.079,0,.079l.631.394h.158l.473-.315c.079,0,.079-.079,0-.079l-.631-.394h-.158Z" transform="translate(-16.087 -29.533)"/><path class="i" d="M57.884,140.515c-.079,0-.079.079,0,.079l.631.394h.158l.473-.315c.079,0,.079-.079,0-.079l-.631-.394h-.158Z" transform="translate(-16.32 -29.681)"/><path class="i" d="M58.984,141.215c-.079,0-.079.079,0,.079l.631.394h.158l.473-.315c.079,0,.079-.079,0-.079l-.631-.394h-.158Z" transform="translate(-16.552 -29.829)"/><path class="i" d="M60.084,141.815c-.079,0-.079.079,0,.079l.631.394h.158l.473-.315c.079,0,.079-.079,0-.079l-.631-.394h-.158Z" transform="translate(-16.785 -29.956)"/><path class="i" d="M61.184,142.515c-.079,0-.079.079,0,.079l.631.394h.158l.473-.315c.079,0,.079-.079,0-.079l-.631-.394h-.158Z" transform="translate(-17.017 -30.104)"/><path class="i" d="M62.284,143.215c-.079,0-.079.079,0,.079l.631.394h.158l.473-.315c.079,0,.079-.079,0-.079l-.631-.394h-.158Z" transform="translate(-17.249 -30.252)"/><path class="i" d="M63.384,143.815c-.079,0-.079.079,0,.079l.631.394h.158l.473-.315c.079,0,.079-.079,0-.079l-.631-.394h-.158Z" transform="translate(-17.482 -30.379)"/><path class="i" d="M64.484,144.515c-.079,0-.079.079,0,.079l.789.473h.158l.473-.315c.079,0,.079-.079,0-.079l-.789-.473h-.158Z" transform="translate(-17.714 -30.527)"/><path class="i" d="M49.184,136.415c-.079,0-.079.079,0,.079l.631.394h.158l.473-.315c.079,0,.079-.079,0-.079l-.631-.394h-.158Z" transform="translate(-14.481 -28.815)"/><path class="i" d="M50.384,137.115c-.079,0-.079.079,0,.079l.789.473h.158l.473-.315c.079,0,.079-.079,0-.079l-.789-.473h-.158Z" transform="translate(-14.735 -28.963)"/><path class="i" d="M51.684,137.915c-.079,0-.079.079,0,.079l.631.394h.158l.473-.315c.079,0,.079-.079,0-.079l-.631-.394h-.158Z" transform="translate(-15.01 -29.132)"/><path class="i" d="M52.884,138.615c-.079,0-.079.079,0,.079l.631.394h.158l.473-.315c.079,0,.079-.079,0-.079l-.631-.394h-.158Z" transform="translate(-15.263 -29.28)"/><path class="i" d="M53.984,139.215c-.079,0-.079.079,0,.079l.631.394h.158l.473-.315c.079,0,.079-.079,0-.079l-.631-.394h-.158Z" transform="translate(-15.496 -29.407)"/><path class="i" d="M55.084,139.915c-.079,0-.079.079,0,.079l.631.394h.158l.473-.315c.079,0,.079-.079,0-.079l-.631-.394h-.158Z" transform="translate(-15.728 -29.555)"/><path class="i" d="M56.184,140.615c-.079,0-.079.079,0,.079l.631.394h.158l.473-.315c.079,0,.079-.079,0-.079l-.631-.394h-.158Z" transform="translate(-15.96 -29.702)"/><path class="i" d="M57.284,141.315c-.079,0-.079.079,0,.079l.631.394h.158l.473-.315c.079,0,.079-.079,0-.079L57.915,141h-.158Z" transform="translate(-16.193 -29.85)"/><path class="i" d="M58.384,141.915c-.079,0-.079.079,0,.079l.631.394h.158l.473-.315c.079,0,.079-.079,0-.079l-.631-.394h-.158Z" transform="translate(-16.425 -29.977)"/><path class="i" d="M59.484,142.615c-.079,0-.079.079,0,.079l.631.394h.158l.473-.315c.079,0,.079-.079,0-.079l-.631-.394h-.158Z" transform="translate(-16.658 -30.125)"/><path class="i" d="M60.584,143.315c-.079,0-.079.079,0,.079l.631.394h.158l.473-.315c.079,0,.079-.079,0-.079L61.215,143h-.158Z" transform="translate(-16.89 -30.273)"/><path class="i" d="M61.684,143.915c-.079,0-.079.079,0,.079l.631.394h.158l.473-.315c.079,0,.079-.079,0-.079l-.631-.394h-.158Z" transform="translate(-17.123 -30.4)"/><path class="i" d="M62.784,144.615c-.079,0-.079.079,0,.079l1.341.789h.158l.473-.315c.079,0,.079-.079,0-.079l-1.341-.789h-.158Z" transform="translate(-17.355 -30.548)"/><path class="i" d="M46.284,136.81c-.079,0-.079.079,0,.079l.473.315h.158l1.262-.71c.079,0,.079-.079,0-.079L47.7,136.1h-.158Z" transform="translate(-13.869 -28.815)"/><path class="i" d="M48.184,136.915c-.079,0-.079.079,0,.079l.71.394h.158l.473-.315c.079,0,.079-.079,0-.079l-.71-.394h-.158Z" transform="translate(-14.27 -28.921)"/><path class="i" d="M49.384,137.615c-.079,0-.079.079,0,.079l.315.237h.158l.473-.315c.079,0,.079-.079,0-.079l-.315-.237h-.158Z" transform="translate(-14.524 -29.069)"/><path class="i" d="M50.184,138.115c-.079,0-.079.079,0,.079l.394.237h.158l.473-.315c.079,0,.079-.079,0-.079l-.394-.237h-.158Z" transform="translate(-14.693 -29.174)"/><path class="i" d="M50.984,138.615c-.079,0-.079.079,0,.079l1.025.631h.158l.473-.315c.079,0,.079-.079,0-.079l-1.025-.631h-.158Z" transform="translate(-14.862 -29.28)"/><path class="i" d="M52.584,139.615c-.079,0-.079.079,0,.079l.631.394h.158l.473-.315c.079,0,.079-.079,0-.079l-.631-.394h-.158Z" transform="translate(-15.2 -29.491)"/><path class="i" d="M53.684,140.315c-.079,0-.079.079,0,.079l.631.394h.158l.473-.315c.079,0,.079-.079,0-.079L54.315,140h-.158Z" transform="translate(-15.432 -29.639)"/><path class="i" d="M54.784,140.915c-.079,0-.079.079,0,.079l.631.394h.158l.473-.315c.079,0,.079-.079,0-.079l-.631-.394h-.158Z" transform="translate(-15.665 -29.766)"/><path class="i" d="M55.984,141.615c-.079,0-.079.079,0,.079l.631.394h.158l.473-.315c.079,0,.079-.079,0-.079l-.631-.394h-.158Z" transform="translate(-15.918 -29.914)"/><path class="i" d="M57.084,142.315c-.079,0-.079.079,0,.079l.631.394h.158l.473-.315c.079,0,.079-.079,0-.079L57.715,142h-.158Z" transform="translate(-16.151 -30.062)"/><path class="i" d="M58.184,142.915c-.079,0-.079.079,0,.079l.631.394h.158l.473-.315c.079,0,.079-.079,0-.079l-.631-.394h-.158Z" transform="translate(-16.383 -30.188)"/><path class="i" d="M59.284,143.615c-.079,0-.079.079,0,.079l.631.394h.158l.473-.315c.079,0,.079-.079,0-.079l-.631-.394h-.158Z" transform="translate(-16.616 -30.336)"/><path class="i" d="M60.384,144.315c-.079,0-.079.079,0,.079l.631.394h.158l.473-.315c.079,0,.079-.079,0-.079L61.015,144h-.158Z" transform="translate(-16.848 -30.484)"/><path class="i" d="M61.484,145.015c-.079,0-.079.079,0,.079l.631.394h.158l.473-.315c.079,0,.079-.079,0-.079l-.631-.394h-.158Z" transform="translate(-17.08 -30.632)"/><path class="i" d="M62.584,145.615c-.079,0-.079.079,0,.079l.631.394h.158l.473-.315c.079,0,.079-.079,0-.079l-.631-.394h-.158Z" transform="translate(-17.313 -30.759)"/><path class="i" d="M47.584,137.715c-.079,0-.079.079,0,.079l.631.394h.158l.473-.315c.079,0,.079-.079,0-.079l-.631-.394h-.158Z" transform="translate(-14.143 -29.09)"/><path class="i" d="M48.684,138.315c-.079,0-.079.079,0,.079l.631.394h.158l.473-.315c.079,0,.079-.079,0-.079L49.315,138h-.158Z" transform="translate(-14.376 -29.217)"/><path class="i" d="M49.784,139.015c-.079,0-.079.079,0,.079l.631.394h.158l.473-.315c.079,0,.079-.079,0-.079l-.631-.394h-.158Z" transform="translate(-14.608 -29.364)"/><path class="i" d="M50.884,139.715c-.079,0-.079.079,0,.079l.631.394h.158l.473-.315c.079,0,.079-.079,0-.079l-.631-.394h-.158Z" transform="translate(-14.841 -29.512)"/><path class="i" d="M51.984,140.415c-.079,0-.079.079,0,.079l4.1,2.524h.158l.473-.315c.079,0,.079-.079,0-.079l-4.1-2.524h-.158Z" transform="translate(-15.073 -29.66)"/><path class="i" d="M57.584,143.715c-.079,0-.079.079,0,.079l.631.394h.158l.473-.315c.079,0,.079-.079,0-.079l-.631-.394h-.158Z" transform="translate(-16.256 -30.358)"/><path class="i" d="M58.684,144.415c-.079,0-.079.079,0,.079l.631.394h.158l.473-.315c.079,0,.079-.079,0-.079l-.631-.394h-.158Z" transform="translate(-16.489 -30.505)"/><path class="i" d="M59.784,145.115c-.079,0-.079.079,0,.079l.631.394h.158l.473-.315c.079,0,.079-.079,0-.079l-.631-.394h-.158Z" transform="translate(-16.721 -30.653)"/><path class="i" d="M60.884,145.715c-.079,0-.079.079,0,.079l.631.394h.158l.473-.315c.079,0,.079-.079,0-.079l-.631-.394h-.158Z" transform="translate(-16.954 -30.78)"/><path class="i" d="M61.984,146.415c-.079,0-.079.079,0,.079l.473.315h.158l.473-.315c.079,0,.079-.079,0-.079l-.473-.315h-.158Z" transform="translate(-17.186 -30.928)"/><path class="j" d="M53.8,127.386l.631-.315.315-9.07-.631.315Z" transform="translate(-15.469 -24.99)"/><path class="k" d="M67.392,138.581l.631-.394L54.931,130.3l-.631.315Z" transform="translate(-15.575 -27.589)"/><path class="l" d="M67.892,125.881l.631-.394L55.431,117.6l-.631.315Z" transform="translate(-15.681 -24.906)"/><path class="i" d="M63.058,122.291c-.079-.079-.158,0-.158.079s.079.237.158.237c.079.079.158,0,.158-.079S63.137,122.37,63.058,122.291Z" transform="translate(-17.392 -25.89)"/><path class="m" d="M63.889,122.179h0V122.1H63.81l-.631.394-.079.079h.079l.394-.237.237-.158C63.81,122.258,63.889,122.179,63.889,122.179Z" transform="translate(-17.434 -25.857)"/><path class="e" d="M68.085,125.022l-14.118-8.439c-.237-.158-.394,0-.394.237L53.1,128.256a.819.819,0,0,0,.315.631l14.118,8.439c.237.158.394,0,.394-.237l.473-11.436A.974.974,0,0,0,68.085,125.022Zm-7.1-3.628c-.079-.079-.158-.158-.158-.237s.079-.158.158-.079.158.158.158.237S61.066,121.473,60.987,121.394Z" transform="translate(-15.321 -24.678)"/><path class="i" d="M53.8,127.39a.971.971,0,0,0,.394.789l13.092,7.887c.237.158.394,0,.473-.237l.394-9.07a.971.971,0,0,0-.394-.789l-13.092-7.887a.289.289,0,0,0-.473.237Z" transform="translate(-15.469 -24.995)"/><path class="f" d="M69.2,125.249v-.237h0v-.079h0v-.079h0v-.079h0a.077.077,0,0,0-.079-.079h0a.077.077,0,0,1-.079-.079L54.768,116.1h-.237l-.631.315h.315l14.118,8.439a.077.077,0,0,1,.079.079h0l.079.079h0a.077.077,0,0,0,.079.079h0a.077.077,0,0,0,.079.079h0a.077.077,0,0,0,.079.079v.079h0v.079h0v.079l-.473,11.436a.345.345,0,0,1-.079.237l.631-.315a.29.29,0,0,0,.079-.237Z" transform="translate(-15.49 -24.589)"/><path class="g" d="M30.473,138.374s6.388,6.31,11.2,1.814l.789-6.941a3.015,3.015,0,0,0,2.129-3c0-2.445-2.6-6.783-4.574-7.887-3-1.656-4.811-2.839-4.811-2.839A8.679,8.679,0,0,0,33,118.894a3.46,3.46,0,0,0-2.839.789C25.425,123.941,30.473,134.352,30.473,138.374Z" transform="translate(-10.046 -25.174)"/><path class="g" d="M33.671,121.56a3.77,3.77,0,0,0,3.786,2.839,7.413,7.413,0,0,0,4.18-1.735,44.244,44.244,0,0,0-5.284-3.234,8.679,8.679,0,0,0-2.208-.631A3.35,3.35,0,0,0,33.671,121.56Z" transform="translate(-11.194 -25.16)"/><path class="c" d="M41.877,144.932H43.77a2.683,2.683,0,0,0,.789-.079,1,1,0,0,0,.473-.079c1.183-.158,10.963-3.549,11.042-3.549l-2.208-2.208L42.9,140.988s.473-4.1.789-7.414c.315-2.918.237-5.994-.71-6.941l-.079-.079c-.71-.631-3.391-1.42-4.022,2.208C38.328,132.47,36.277,144.853,41.877,144.932Z" transform="translate(-12.143 -26.684)"/><path class="g" d="M41.46,127.37a3.654,3.654,0,0,0-2.76,1.42c.631-3.628,3.391-3.391,4.417-2.366a5.459,5.459,0,0,1,1.341,3.076A4.139,4.139,0,0,0,41.46,127.37Z" transform="translate(-12.279 -26.631)"/><path class="c" d="M40.133,118.472a2.993,2.993,0,0,0,.946,3.155,5.453,5.453,0,0,1-3,.946c-2.524,0-4.18-2.445-3.076-3.549A5.432,5.432,0,0,0,35.8,116.5Z" transform="translate(-11.425 -24.674)"/><path class="c" d="M45.209,105.259c-.473-2.918-2.918-4.259-5.994-4.259a5.907,5.907,0,0,0-5.915,5.915v.079h0v3.313c0,2.445,6.625,6.152,7.414,6.073a1.884,1.884,0,0,0,1.1-.394c2.051-1.656,3.943-4.969,3.549-7.335C45.052,107.31,45.367,106.363,45.209,105.259Z" transform="translate(-11.138 -21.398)"/><path class="b" d="M44.24,102.016c0,2.682-2.445,3-3.707,3.865-1.42.946-1.577,6.073.631,9.938,1.735,3,3.786,4.1,3.391,9.859-.789-4.969-3.943-7.493-5.836-7.493-2.208,0-4.1,4.732-4.1,14.512,0,1.893-5.915,2.287-5.915-4.653,0-4.89-1.183-18.219.71-24.529A8.514,8.514,0,0,1,37.141,97.6C41.085,97.521,44.24,100.754,44.24,102.016Z" transform="translate(-10.089 -20.68)"/><path class="c" d="M63.683,139.6c-.158,1.341.079,1.577-.552,2.524a6.145,6.145,0,0,1-3.076,1.656,4.247,4.247,0,0,1-.631.079L56.9,141.728l.552-.631a16.084,16.084,0,0,1,1.183-2.366,1.874,1.874,0,0,1,1.1-.552l2.129-.079a.831.831,0,0,1-.631.868c-.158,0-1.341.315-1.341.315s-.473.71-.394,1.025a1.787,1.787,0,0,0,1.262-.079,18,18,0,0,0,2.129-1.341S63.841,138.337,63.683,139.6Z" transform="translate(-16.124 -29.238)"/><path class="c" d="M120.256,57.4a5.189,5.189,0,0,0,1.183.315c-.394,1.025-1.025,1.814-1.42,2.839a15.94,15.94,0,0,1-.868,2.524.3.3,0,0,1-.552-.158C118.6,62.211,119.152,58.425,120.256,57.4Z" transform="translate(-29.162 -12.186)"/><path class="c" d="M121.2,56.1a5.189,5.189,0,0,0,1.183.315c-.394,1.025-1.025,1.814-1.42,2.839a15.941,15.941,0,0,1-.868,2.524.213.213,0,0,1-.394-.158C119.854,60.911,120.17,57.125,121.2,56.1Z" transform="translate(-29.391 -11.911)"/><path class="c" d="M121.92,55.9a2.784,2.784,0,0,0,1.1.237c-.394.946-.946,1.656-1.341,2.682a20.8,20.8,0,0,1-.789,2.366c-.158.237-.394.079-.394-.158C120.658,60.4,120.894,56.846,121.92,55.9Z" transform="translate(-29.563 -11.869)"/><path class="c" d="M119.817,59.874c-.473-.158,0-1.814-.079-2.051-.158-.473-.552,2.524-.71,3.313-.079.237-.079.789-.394.789-.631-.158.158-3.865.158-4.1.079-.473.237-.868.315-1.341l.237-1.183A4.085,4.085,0,0,0,121,56.4a3.134,3.134,0,0,1-.631,2.524C120.291,59.165,120.054,59.874,119.817,59.874Z" transform="translate(-29.117 -11.742)"/><path class="g" d="M134.968,27.023c-.158.473-10.253,22.084-12.619,24.844-.079-.158-.71-1.577-3.549-2.839,2.129-3.786,9.149-24.529,12.777-24.529C131.577,24.421,133.864,26.866,134.968,27.023Z" transform="translate(-29.204 -5.233)"/><path class="d" d="M149.126,114.194a5.525,5.525,0,0,1,.473,2.287c-.158.789-.079.631-.079.631l-1.656,1.1-.315-.71-.315,1.025s-3.313,2.287-4.653,2.445a6.444,6.444,0,0,1-3.549-1.1c-.789-.789.394-1.577,1.262-2.208A49.415,49.415,0,0,0,144,113.8Z" transform="translate(-33.424 -24.103)"/><path class="d" d="M138.3,111.173a5.262,5.262,0,0,1,.394,2.129c-.158.71-.079.71-.079.71l-1.577.868-.315-.631-.315.946s-3.155,2.051-4.417,2.208a5.476,5.476,0,0,1-3.234-1.1c-.552-.552.315-1.5,1.183-2.051.868-.631,3.628-3.549,3.628-3.549Z" transform="translate(-31.27 -23.448)"/><path class="n" d="M139.3,98.823a6.093,6.093,0,0,1-3.786,1.025c-2.208-.158-2.287-.552-2.287-.552L131.1,58.679,133.072,53l8.281,2.682Z" transform="translate(-31.803 -11.256)"/><path class="n" d="M149.515,60.2l.473,42.59a7.125,7.125,0,0,1-3.313,1.1,7.689,7.689,0,0,1-3.865-1.341S138.71,65.8,138,60.2Z" transform="translate(-33.261 -12.777)"/><path class="g" d="M148.5,56.589l.315-29.418s-4.5-2.445-5.521-2.287-4.18-1.183-5.6-1.183c-5.679,0-5.915,2.682-6.231,4.5-1.262,7.019-.789,27.131-.789,27.131a4.609,4.609,0,0,0,3.786.158l1.025-6.152,1.577,7.177C142.428,59.034,148.5,56.589,148.5,56.589Z" transform="translate(-31.695 -5.065)"/><path class="c" d="M126.083,54.9c1.025.868,1.025,1.183,2.208,1.5,1.183.237,3.549-.946,3.47-.946,0,0,.315-.237.552-.394l.315-3.391h-.868a12.277,12.277,0,0,0-2.6-.868,2.31,2.31,0,0,0-1.183.394l-1.656,1.42s.868.394,1.025.315c.079-.079,1.341-.868,1.341-.868l.631.237c.552.237.394.315.394.315l-.079.079a1.941,1.941,0,0,1-.946.71,15.019,15.019,0,0,1-2.524.552S125.058,54.113,126.083,54.9Z" transform="translate(-30.651 -10.791)"/><path class="c" d="M138.894,24.025c-1.183,1.577-2.918,4.5-1.1,5.521,3.076,1.814,7.335-5.994,7.335-5.994-.789-1.656-1.183-6.152-1.183-6.152l-4.89,2.682A3.163,3.163,0,0,1,138.894,24.025Z" transform="translate(-33.05 -3.734)"/><path class="g" d="M144.569,45.122c0-1.893,1.1-10.963,1.814-12.935.868-2.445,2.445-4.732,3.549-4.022s2.051,1.814,2.208,4.969S149.3,48.277,148.2,49.46c-1.183,1.183-14.2,1.656-14.2,1.656l.473-4.811Z" transform="translate(-32.416 -5.98)"/><path class="c" d="M140.087,20.89s-2.445,1.183-3.47,0c-1.1-1.183-2.445-4.338-2.129-7.966.237-3.549.473-5.127,1.893-5.836,2.051-1.1,7.256-.079,8.518,3.628.789,2.208-.473,5.442-.473,5.442Z" transform="translate(-32.509 -1.466)"/><path class="b" d="M142.986,6.1s5.757-.473,4.732,5.994a13,13,0,0,1-2.287,5.994l-.079-1.972a2.915,2.915,0,0,0,1.341-2.6c0-1.262-1.577-.079-1.577-.079a11.012,11.012,0,0,1-2.051-3.076A26.927,26.927,0,0,1,142.986,6.1Z" transform="translate(-34.303 -1.344)"/><path class="b" d="M142.8,8.041a3.807,3.807,0,0,0-4.417-2.366c-6.546,1.5-4.1,7.335-4.1,7.335s4.259-.946,5.994-2.129A8.025,8.025,0,0,0,142.8,8.041Z" transform="translate(-32.38 -1.237)"/><path class="f" d="M121.36,52.067c-.158.079-.237.315,0,.394l2.445,1.5a1.087,1.087,0,0,0,.71,0l1.972-1.183c.158-.079.237-.315,0-.394l-2.445-1.5a1.087,1.087,0,0,0-.71,0Z" transform="translate(-29.713 -10.796)"/><path class="h" d="M138.256,49.917,128,55.832a.716.716,0,0,1-.789,0L112.86,47.157c-.237-.158-.158-.315,0-.473l10.253-5.915a.716.716,0,0,1,.789,0l14.354,8.676C138.414,49.6,138.414,49.838,138.256,49.917Zm-13.487.315-2.445-1.5a1.087,1.087,0,0,0-.71,0l-1.972,1.183c-.158.079-.237.315,0,.394l2.445,1.5a1.087,1.087,0,0,0,.71,0l1.972-1.183C124.927,50.548,124.927,50.39,124.769,50.233ZM136.363,50l-13.329-8.124-5.363,3.076L131,53.072Z" transform="translate(-27.917 -8.646)"/><path class="f" d="M112.784,48.691h0l.079.079h0l14.354,8.676a.077.077,0,0,1,.079.079h.631l10.253-5.915c.079-.079.158-.158.158-.237v.71c0,.079-.079.158-.158.237l-10.253,5.915h-.552a.077.077,0,0,1-.079-.079l-14.354-8.676h0l-.158-.789C112.705,48.612,112.705,48.691,112.784,48.691Z" transform="translate(-27.92 -10.338)"/><path class="f" d="M118.6,45.034l13.881,8.439,5.6-3.234L124.2,41.8Z" transform="translate(-29.162 -8.889)"/><path class="b" d="M119.2,45.224h0l.473.315h.315l1.262-.71h0l-.394-.237h0v-.158h0l.473.315h.315l1.262-.71h0l-.394-.237h0v-.158h0l.71.394h.237l.473-.315h0l-.631-.394h0v-.158h0l2.129,1.262h.315l.473-.315h0l-.237-.158h0V43.8H125.9l-.631-.394h0v-.158h0l-.631-.394h0V42.7h0l.631.394h.315l.473-.315a.077.077,0,0,0,.079-.079v.158a.077.077,0,0,1-.079.079l-.473.237h0l.631.394h.315l.473-.315a.077.077,0,0,0,.079-.079v.158a.077.077,0,0,1-.079.079l-.473.237h0l.631.394h.237l.473-.315.079-.079V43.8a.077.077,0,0,1-.079.079l-.473.237h0l.631.394h.315l.473-.315a.077.077,0,0,0,.079-.079v.158a.077.077,0,0,1-.079.079l-.473.237h0l.631.394h.315l.473-.315a.077.077,0,0,0,.079-.079v.158l-.079.079-.473.237h0l.631.394h.315l.473-.315a.077.077,0,0,0,.079-.079v.158a.077.077,0,0,1-.079.079l-.473.237h0l.631.394h.315l.473-.315a.077.077,0,0,0,.079-.079V45.7a.077.077,0,0,1-.079.079l-.473.237h0l.631.394h.237l.473-.315a.077.077,0,0,0,.079-.079v.237l-.473.237h0l.631.394h.315l.473-.315a.077.077,0,0,0,.079-.079v.158a.077.077,0,0,1-.079.079l-.473.237h0l.631.394h.315l.473-.315h0V47.2l-.079.079-.473.237h0l.631.394h.315l.473-.315h0v.158a.077.077,0,0,1-.079.079l-.473.237h0l.631.394h.315l.473-.315a.077.077,0,0,0,.079-.079v.158a.077.077,0,0,1-.079.079l-.473.237h0l.631.394h.315l.473-.315a.077.077,0,0,0,.079-.079v.158a.077.077,0,0,1-.079.079l-.473.237h0l.631.394h.237l.473-.315a.077.077,0,0,0,.079-.079v.158a.077.077,0,0,1-.079.079l-.473.237h0l.631.394h.315l.473-.315v.079a.077.077,0,0,1-.079.079l-.473.315h0l-.315-.237v.158l-.079.079-.473.315h0l-.631-.394h0V49.8h-.079l-.473-.315v.158l-.079.079-.394.237h0l1.341.868h.315l.473-.315a.077.077,0,0,0,.079-.079v.158a.077.077,0,0,1-.079.079l-.473.315h0v.158l-.079.079-.473.315h0v.079a.077.077,0,0,1-.079.079l-.473.315h0l-.237-.158v.158l-.079.079-.473.315h0v.158l-.079.079-.473.315h0l-.473-.315h0V52.48h-.079l-.631-.394h0v-.158h-.079l-.631-.394h0v-.158h-.079l-.631-.394h0v-.158h-.079l-.631-.394h0v-.158h-.079l-4.18-2.524h0V47.59h-.079l-4.5.079h0v-.158h-.079l-.631-.394h0v-.158H122.2l-.631-.394h0v-.158h-.079l-.631-.394h0v-.158h0l.631.394h.315l.473-.315a.077.077,0,0,0,.079-.079v.158l-.079.079-.473.237h0l.631.394h.315l.473-.315h0l-.079-.079h0V46.17l-.079.079h0l-.315-.237h0v-.158h-.079l-.71-.394h0V45.3l-.789.473h0l-.473-.315h0l-1.5-.237Zm3.313.158h0l.868.552h.315l.473-.315h0l-.552-.315h0v-.158h0l1.262.789h.315l.473-.315h0l-.237-.158h0V45.3l-.237.158V45.3l.71-.394h0l-.079-.079h0v-.158h-.079l-.552-.315v.158a.077.077,0,0,1-.079.079l-.473.315h0l-.237-.158v.158a.077.077,0,0,1-.079.079l-.473.315h0v.079a.077.077,0,0,1-.079.079l-1.262-.079C122.434,45.3,122.434,45.382,122.513,45.382Z" transform="translate(-29.288 -9.08)"/><path class="b" d="M122.184,45.173h0l.71-.473v.158h0l.631.394h0l-.473.315h-.315Z" transform="translate(-29.906 -9.502)"/><path class="b" d="M124,44.337h0v.079h0l.394.237h0l-.473.315h-.315l-.71-.394h0l.473-.237a.077.077,0,0,0,.079-.079V44.1l.237.158h0c.237.079.237.079.315.079Z" transform="translate(-30.07 -9.375)"/><path class="b" d="M124.773,43.958h0l.079-.158.946.552h0l-.473.315h-.315l-.71-.394h0Z" transform="translate(-30.366 -9.312)"/><path class="b" d="M124.8,46.773h0l.394-.237a.077.077,0,0,0,.079-.079V46.3l.631.394h.079v.158h0l-.473.315h-.315l-.394-.394Z" transform="translate(-30.472 -9.84)"/><path class="b" d="M126.089,48.158V48l.315.237h.079v.158h0l.237.158h0l-.473.315h-.315l-.631-.394h0l.789-.315Z" transform="translate(-30.577 -10.199)"/><path class="b" d="M127.431,49.568l-.631-.394h0l.473-.237a.077.077,0,0,0,.079-.079V48.7l.315.237h.079v.158h0l.237.158h0l-.473.315h-.158c.158.079.158.079.079,0Z" transform="translate(-30.894 -10.347)"/><path class="b" d="M128.631,50.268,128,49.873h0l.473-.237a.077.077,0,0,0,.079-.079V49.4l.315.237h.079v.158h0l.237.158h0l-.473.315h-.158c.158.079.079.079.079,0Z" transform="translate(-31.148 -10.495)"/><path class="b" d="M129.731,50.968l-.631-.394h0l.473-.237a.077.077,0,0,0,.079-.079V50.1l.315.237h.079v.158h0l.237.158h0l-.473.315Z" transform="translate(-31.38 -10.643)"/><path class="b" d="M130.931,51.668l-.631-.394h0l.473-.237a.077.077,0,0,0,.079-.079V50.8l.315.237h.079v.158h0l.237.158h0l-.473.315Z" transform="translate(-31.634 -10.791)"/><path class="b" d="M132.031,52.368l-.631-.394h0l.473-.237a.077.077,0,0,0,.079-.079V51.5l.315.237h.079v.158h0l.237.158h0l-.473.315Z" transform="translate(-31.866 -10.939)"/><path class="b" d="M133.131,53.068l-.631-.394h0l.473-.237a.077.077,0,0,0,.079-.079V52.2l.315.237h.079v.158h0l.237.158h0l-.473.315Z" transform="translate(-32.099 -11.087)"/><path class="b" d="M134.331,53.768l-.631-.394h0l.473-.237a.077.077,0,0,0,.079-.079V52.9l.315.237h.079v.158h0l.237.158h0l-.473.315Z" transform="translate(-32.352 -11.235)"/><path class="b" d="M135.431,54.468l-.631-.394h0l.473-.237a.077.077,0,0,0,.079-.079V53.6l.315.237h.079v.158h0l.237.158h0l-.473.315Z" transform="translate(-32.585 -11.383)"/><path class="b" d="M137.041,51.173l.079.079h0l-.473.315h-.315l-.631-.394h0l.473-.237a.077.077,0,0,0,.079-.079V50.7l.473.315h.079l.237.158Z" transform="translate(-32.775 -10.77)"/><path class="b" d="M135.941,50.473l.079.079h0l-.473.315h-.315l-.631-.394h0l.473-.237a.077.077,0,0,0,.079-.079V50l.473.315h.079l.237.158Z" transform="translate(-32.542 -10.622)"/><path class="b" d="M134.741,49.873l.079.079h0l-.473.315h-.315l-.631-.394h0l.473-.237a.077.077,0,0,0,.079-.079V49.4l.473.315h.079l.237.158Z" transform="translate(-32.289 -10.495)"/><path class="b" d="M133.641,49.173l.079.079h0l-.473.315h-.315l-.631-.394h0l.473-.237a.077.077,0,0,0,.079-.079V48.7l.473.315h.079l.237.158Z" transform="translate(-32.056 -10.347)"/><path class="b" d="M132.541,48.473l.079.079h0l-.473.315h-.315l-.631-.394h0l.473-.237a.077.077,0,0,0,.079-.079V48l.473.315h.079l.237.158h0c-.079-.079-.079,0,0,0Z" transform="translate(-31.824 -10.199)"/><path class="b" d="M131.341,47.773l.079.079h0l-.473.315h-.315L130,47.773h0l.473-.237a.077.077,0,0,0,.079-.079V47.3l.473.315h.079l.237.158Z" transform="translate(-31.57 -10.052)"/><path class="b" d="M130.241,47.073l.079.079h0l-.473.315h-.315l-.631-.394h0l.473-.237a.077.077,0,0,0,.079-.079V46.6l.473.315H130l.237.158Z" transform="translate(-31.338 -9.904)"/><path class="b" d="M129.141,46.373l.079.079h0l-.473.315h-.315l-.631-.394h0l.473-.237a.077.077,0,0,0,.079-.079V45.9l.473.315h.079l.237.158Z" transform="translate(-31.105 -9.756)"/><path class="b" d="M127.962,45.673l.079.079h0l-.473.315h-.237l-.631-.394h0l.394-.237a.077.077,0,0,0,.079-.079V45.2l.473.315h.079l.237.158Z" transform="translate(-30.873 -9.608)"/><path class="b" d="M126.889,46.358V46.2l.315.237h.079v.158h0l.237.158h0l-.473.315h-.315l-.631-.394h0l.789-.315Z" transform="translate(-30.746 -9.819)"/><path class="b" d="M127,48.173l.473-.237a.077.077,0,0,0,.079-.079V47.7h0l.631.394h.079v.158h0l-.473.315h-.315L127,48.173Z" transform="translate(-30.936 -10.136)"/><path class="b" d="M128.2,48.873h0l.394-.237a.077.077,0,0,0,.079-.079V48.4h0l.631.394h.079v.158h0l-.473.315h-.315Z" transform="translate(-31.19 -10.284)"/><path class="b" d="M129.3,49.552h0l.394-.315a.077.077,0,0,0,.079-.079V49h0l.631.394h.079v.158h0l-.473.315h-.315Z" transform="translate(-31.422 -10.411)"/><path class="b" d="M130.5,50.252h0l.394-.315a.077.077,0,0,0,.079-.079V49.7h0l.631.394h.079v.158h0l-.473.315h-.315Z" transform="translate(-31.676 -10.559)"/><path class="b" d="M131.6,50.952h0l.394-.315a.077.077,0,0,0,.079-.079V50.4h0l.631.473h.079v.158h0l-.473.315h-.315Z" transform="translate(-31.908 -10.707)"/><path class="b" d="M132.784,51.673c-.079,0-.079-.079,0,0l.394-.237a.077.077,0,0,0,.079-.079V51.2h0l.631.394h.079v.158h0l-.473.315h-.315Z" transform="translate(-32.146 -10.876)"/><path class="b" d="M133.9,52.273h0l.394-.237a.077.077,0,0,0,.079-.079V51.8h0l.631.394h.079v.158h0l-.473.315h-.315Z" transform="translate(-32.394 -11.002)"/><path class="b" d="M135.5,51.394l.237.158h0l-.473.315h-.237l-.631-.394h0l.473-.237a.077.077,0,0,0,.079-.079V51l.315.237h.079l.158.158Z" transform="translate(-32.5 -10.833)"/><path class="b" d="M134.383,50.794l.237.158h0l-.473.315h-.315l-.631-.394h0l.473-.237a.077.077,0,0,0,.079-.079V50.4l.315.237h.079l.237.158Z" transform="translate(-32.247 -10.707)"/><path class="b" d="M133.283,50.094l.237.158h0l-.473.315h-.315l-.631-.394h0l.473-.237a.077.077,0,0,0,.079-.079V49.7l.315.237h.079l.237.158Z" transform="translate(-32.014 -10.559)"/><path class="b" d="M132.083,49.394l.237.158h0l-.473.315h-.315l-.631-.394h0l.473-.237.079-.079V49l.315.237h.079l.237.158Z" transform="translate(-31.761 -10.411)"/><path class="b" d="M130.983,48.694l.237.158h0l-.473.315h-.315l-.631-.394h0l.473-.237a.077.077,0,0,0,.079-.079V48.3l.315.237h.079l.237.158Z" transform="translate(-31.528 -10.263)"/><path class="b" d="M129.883,47.994l.237.158h0l-.473.315h-.315l-.631-.394h0l.473-.237a.077.077,0,0,0,.079-.079V47.6l.315.237h.079l.237.158Z" transform="translate(-31.296 -10.115)"/><path class="b" d="M128.683,47.294l.237.158h0l-.473.315h-.315l-.631-.394h0l.473-.237a.077.077,0,0,0,.079-.079V46.9l.315.237h.079l.237.158Z" transform="translate(-31.042 -9.967)"/><path class="b" d="M136.7,52.094l.237.158h0l-.473.315h-.237l-.631-.394h0l.473-.237a.077.077,0,0,0,.079-.079V51.7l.315.237h.079l.158.158Z" transform="translate(-32.754 -10.981)"/><path class="b" d="M136.3,53.052h0l-.552.315h-.315l-.631-.394h0l.473-.237a.077.077,0,0,0,.079-.079V52.5h0l.631.394h.079l.237.158Z" transform="translate(-32.585 -11.15)"/><path class="b" d="M125.9,47.473h0l.394-.237a.077.077,0,0,0,.079-.079V47h0l.631.394h.079v.158h0l-.473.315h-.315Z" transform="translate(-30.704 -9.988)"/><path class="b" d="M128.183,44.694l.237.158h0l-.473.315h-.315L127,44.773h0l.473-.237a.077.077,0,0,0,.079-.079V44.3l.315.158h.079l.237.237Z" transform="translate(-30.936 -9.418)"/><path class="b" d="M129.383,45.394l.237.158h0l-.473.315h-.315l-.631-.394h0l.473-.237.079-.079V45l.315.237h.079l.237.158Z" transform="translate(-31.19 -9.566)"/><path class="b" d="M130.483,46.094l.237.158h0l-.473.315h-.315l-.631-.394h0l.473-.237a.077.077,0,0,0,.079-.079V45.7l.315.237h.079l.237.158Z" transform="translate(-31.422 -9.713)"/><path class="b" d="M131.583,46.794l.237.158h0l-.473.315h-.315l-.631-.394h0l.473-.237a.077.077,0,0,0,.079-.079V46.4l.315.237h.079l.237.158Z" transform="translate(-31.655 -9.861)"/><path class="b" d="M132.783,47.394l.237.158h0l-.473.315h-.315l-.631-.394h0l.473-.237a.077.077,0,0,0,.079-.079V47l.315.237h.079l.237.158Z" transform="translate(-31.908 -9.988)"/><path class="b" d="M133.883,48.094l.237.158h0l-.473.315h-.315l-.631-.394h0l.473-.237a.077.077,0,0,0,.079-.079V47.7l.315.237h.079l.237.158Z" transform="translate(-32.141 -10.136)"/><path class="b" d="M135.1,48.794l.237.158h0l-.473.315h-.237L134,48.873h0l.473-.237a.077.077,0,0,0,.079-.079V48.4l.315.237h.079l.158.158Z" transform="translate(-32.416 -10.284)"/><path class="b" d="M136.183,49.494l.237.158h0l-.473.315h-.315L135,49.573h0l.473-.237a.077.077,0,0,0,.079-.079V49.1l.315.237h.079l.237.158Z" transform="translate(-32.627 -10.432)"/><path class="b" d="M137.283,50.194l.237.158h0l-.473.315h-.315l-.631-.394h0l.473-.237a.077.077,0,0,0,.079-.079V49.8l.315.237h.079l.237.158Z" transform="translate(-32.859 -10.58)"/><path class="b" d="M138.483,50.894l.237.158h0l-.473.315h-.315l-.631-.394h0l.473-.237a.077.077,0,0,0,.079-.079V50.5l.315.237h.079l.237.158Z" transform="translate(-33.113 -10.728)"/><path class="b" d="M139.7,52.373h0l.394-.237a.077.077,0,0,0,.079-.079V51.9l.315.237h.079v.158h0l.237.158h0l-.473.315h-.237Z" transform="translate(-33.62 -11.023)"/><path class="b" d="M139.231,52.068l-.631-.394h0l.473-.237a.077.077,0,0,0,.079-.079V51.2l.315.237h.079v.158h0l.237.158h0l-.473.315Z" transform="translate(-33.388 -10.876)"/><path class="b" d="M138.341,51.952l-.473.315h-.315L137,51.873h0l.473-.237a.077.077,0,0,0,.079-.079V51.4l.473.315h.079v.158h0l.237.079Z" transform="translate(-33.049 -10.918)"/><path class="b" d="M137.783,52.794l.237.158h0l-.473.315h-.315l-.631-.394h0l.473-.237a.077.077,0,0,0,.079-.079V52.4l.315.237h.079l.237.158Z" transform="translate(-32.965 -11.129)"/><path class="b" d="M138.689,54.046l-.789-.473h0l.473-.237a.077.077,0,0,0,.079-.079V53.1l1.025.631h0l-.473.315h-.158c-.079.079-.079,0-.158,0Z" transform="translate(-33.24 -11.277)"/><path class="b" d="M137.541,54.541l-1.341-.868h0l.394-.237a.077.077,0,0,0,.079-.079V53.2h0l.631.394h.079v.158h0l.71.394h0l-.473.315h-.158c.158.079.158.079.079.079Z" transform="translate(-32.88 -11.298)"/><path class="b" d="M136.768,55.068c0,.079-.079.079,0,0h-.237l-.631-.394h0l.473-.237a.077.077,0,0,0,.079-.079V54.2l.868.552h0Z" transform="translate(-32.817 -11.509)"/><path class="b" d="M135.3,55.573h0l.394-.237a.077.077,0,0,0,.079-.079V55.1h0l.631.394h0v.079l-.473.315h-.237Z" transform="translate(-32.69 -11.7)"/><path class="b" d="M134.2,54.873h0l.394-.237a.077.077,0,0,0,.079-.079V54.4h0l.631.394h.079v.158h0l-.473.315h-.315Z" transform="translate(-32.458 -11.552)"/><path class="b" d="M133.084,54.173h0l.394-.237a.077.077,0,0,0,.079-.079V53.7h0l.631.394h.079v.158h0l-.473.315h-.315Z" transform="translate(-32.21 -11.404)"/><path class="b" d="M131.9,53.473h0l.394-.237a.077.077,0,0,0,.079-.079V53h0l.631.394h.079v.158h0l-.473.315h-.315Z" transform="translate(-31.972 -11.256)"/><path class="b" d="M130.8,52.773h0l.394-.237a.077.077,0,0,0,.079-.079V52.3h0l.631.394h.079v.158h0l-.473.315h-.237Z" transform="translate(-31.739 -11.108)"/><path class="b" d="M125.1,49.352h0l.394-.315a.077.077,0,0,0,.079-.079V48.8h0l.631.394h.079v.158h0l.631.394h.079V49.9h0l.631.394h.079v.158h0l.631.394h.079v.158h0l.631.394h.079v.158h0l-.473.315h-.315Z" transform="translate(-30.535 -10.368)"/><path class="b" d="M123.984,48.652h0l.394-.315a.077.077,0,0,0,.079-.079V48.1l.631.394h.079v.158h0l-.473.315h-.315Z" transform="translate(-30.287 -10.221)"/><path class="b" d="M123.21,47.658V47.5l.237.158h.079v.158h0l.394.237h0l-.473.315h-.315l-.631-.394h0l.71-.315Z" transform="translate(-29.986 -10.094)"/><path class="b" d="M123.158,47.052h0l.394-.315a.077.077,0,0,0,.079-.079V46.5l.552.315h.079v.158h0l.631.394h.079v.158h0l.237.158h0l-.473.315h-.315l-1.025-.631h0l.394-.237a.077.077,0,0,0,.079-.079v-.158l-.079.079-.473.315H123Z" transform="translate(-30.091 -9.882)"/><path class="b" d="M122.4,46.531h0l.394-.315a.077.077,0,0,0,.079-.079v-.158h0l.079-.079v.158h0l.315.158h0l-.473.315H122.4Z" transform="translate(-29.964 -9.756)"/><path class="b" d="M121.1,45.773h0l.394-.237a.077.077,0,0,0,.079-.079V45.3h.158v.158h0l.631.394h0l-.473.315h-.315Z" transform="translate(-29.69 -9.629)"/><path class="i" d="M125.084,42.315c-.079,0-.079.079,0,.079l.631.394h.158l.473-.315c.079,0,.079-.079,0-.079L125.794,42h-.158Z" transform="translate(-30.519 -8.932)"/><path class="i" d="M126.284,42.915c-.079,0-.079.079,0,.079l.631.394h.158l.473-.315c.079,0,.079-.079,0-.079l-.631-.394h-.158Z" transform="translate(-30.773 -9.058)"/><path class="i" d="M127.384,43.615c-.079,0-.079.079,0,.079l.631.394h.158l.473-.315c.079,0,.079-.079,0-.079l-.631-.394h-.158Z" transform="translate(-31.005 -9.206)"/><path class="i" d="M128.484,44.315c-.079,0-.079.079,0,.079l.631.394h.158l.473-.315c.079,0,.079-.079,0-.079L129.115,44h-.158Z" transform="translate(-31.238 -9.354)"/><path class="i" d="M129.684,45.015c-.079,0-.079.079,0,.079l.631.394h.158l.473-.315c.079,0,.079-.079,0-.079l-.631-.394h-.158Z" transform="translate(-31.491 -9.502)"/><path class="i" d="M130.784,45.715c-.079,0-.079.079,0,.079l.631.394h.158l.473-.315c.079,0,.079-.079,0-.079l-.631-.394h-.158Z" transform="translate(-31.724 -9.65)"/><path class="i" d="M131.984,46.415c-.079,0-.079.079,0,.079l.631.394h.158l.473-.315c.079,0,.079-.079,0-.079l-.631-.394h-.158Z" transform="translate(-31.977 -9.798)"/><path class="i" d="M133.084,47.115c-.079,0-.079.079,0,.079l.631.394h.158l.473-.315c.079,0,.079-.079,0-.079l-.631-.394h-.158Z" transform="translate(-32.21 -9.946)"/><path class="i" d="M134.184,47.815c-.079,0-.079.079,0,.079l.631.394h.158l.473-.315c.079,0,.079-.079,0-.079l-.631-.394h-.158Z" transform="translate(-32.442 -10.094)"/><path class="i" d="M135.384,48.515c-.079,0-.079.079,0,.079l.631.394h.158l.473-.315c.079,0,.079-.079,0-.079l-.631-.394h-.158Z" transform="translate(-32.696 -10.242)"/><path class="i" d="M136.484,49.115c-.079,0-.079.079,0,.079l.631.394h.158l.473-.315c.079,0,.079-.079,0-.079l-.631-.394h-.158Z" transform="translate(-32.928 -10.368)"/><path class="i" d="M137.584,49.815c-.079,0-.079.079,0,.079l.631.394h.158l.473-.315c.079,0,.079-.079,0-.079l-.631-.394h-.158Z" transform="translate(-33.16 -10.516)"/><path class="i" d="M138.784,50.515c-.079,0-.079.079,0,.079l.631.394h.158l.473-.315c.079,0,.079-.079,0-.079l-.631-.394h-.158Z" transform="translate(-33.414 -10.664)"/><path class="i" d="M139.884,51.215c-.079,0-.079.079,0,.079l.631.394h.158l.473-.315c.079,0,.079-.079,0-.079l-.631-.394h-.158Z" transform="translate(-33.646 -10.812)"/><path class="i" d="M141.084,51.915c-.079,0-.079.079,0,.079l.631.394h.158l.473-.315c.079,0,.079-.079,0-.079l-.631-.394h-.158Z" transform="translate(-33.9 -10.96)"/><path class="i" d="M124.184,42.815c-.079,0-.079.079,0,.079l2.129,1.262h.158l.473-.315c.079,0,.079-.079,0-.079L124.815,42.5h-.158Z" transform="translate(-30.329 -9.037)"/><path class="i" d="M127.184,44.715c-.079,0-.079.079,0,.079l.631.394h.158l.473-.315c.079,0,.079-.079,0-.079l-.631-.394h-.158Z" transform="translate(-30.963 -9.439)"/><path class="i" d="M128.284,45.315c-.079,0-.079.079,0,.079l.631.394h.158l.473-.315c.079,0,.079-.079,0-.079L128.915,45h-.158Z" transform="translate(-31.195 -9.566)"/><path class="i" d="M129.484,46.015c-.079,0-.079.079,0,.079l.631.394h.158l.473-.315c.079,0,.079-.079,0-.079l-.631-.394h-.158Z" transform="translate(-31.449 -9.713)"/><path class="i" d="M130.584,46.715c-.079,0-.079.079,0,.079l.631.394h.158l.473-.315c.079,0,.079-.079,0-.079l-.631-.394h-.158Z" transform="translate(-31.681 -9.861)"/><path class="i" d="M131.684,47.415c-.079,0-.079.079,0,.079l.631.394h.158l.473-.315c.079,0,.079-.079,0-.079l-.631-.394h-.158Z" transform="translate(-31.914 -10.009)"/><path class="i" d="M132.884,48.115c-.079,0-.079.079,0,.079l.631.394h.158l.473-.315c.079,0,.079-.079,0-.079l-.631-.394h-.158Z" transform="translate(-32.167 -10.157)"/><path class="i" d="M133.984,48.815c-.079,0-.079.079,0,.079l.631.394h.158l.473-.315c.079,0,.079-.079,0-.079l-.631-.394h-.158Z" transform="translate(-32.4 -10.305)"/><path class="i" d="M135.184,49.515c-.079,0-.079.079,0,.079l.631.394h.158l.473-.315c.079,0,.079-.079,0-.079l-.631-.394h-.158Z" transform="translate(-32.653 -10.453)"/><path class="i" d="M136.284,50.215c-.079,0-.079.079,0,.079l.631.394h.158l.473-.315c.079,0,.079-.079,0-.079l-.631-.394h-.158Z" transform="translate(-32.886 -10.601)"/><path class="i" d="M137.384,50.915c-.079,0-.079.079,0,.079l.631.394h.158l.473-.315c.079,0,.079-.079,0-.079l-.631-.394h-.158Z" transform="translate(-33.118 -10.749)"/><path class="i" d="M138.584,51.615c-.079,0-.079.079,0,.079l.631.394h.158l.473-.315c.079,0,.079-.079,0-.079l-.631-.394h-.158Z" transform="translate(-33.372 -10.897)"/><path class="i" d="M139.684,52.215c-.079,0-.079.079,0,.079l.631.394h.158l.473-.315c.079,0,.079-.079,0-.079l-.631-.394h-.158Z" transform="translate(-33.604 -11.023)"/><path class="i" d="M123.184,43.415c-.079,0-.079.079,0,.079l.71.394h.158l.473-.315c.079,0,.079-.079,0-.079l-.71-.394h-.158Z" transform="translate(-30.118 -9.164)"/><path class="i" d="M124.384,44.115c-.079,0-.079.079,0,.079l.71.394h.158l.473-.315c.079,0,.079-.079,0-.079l-.71-.394h-.158Z" transform="translate(-30.371 -9.312)"/><path class="i" d="M121.184,44.41c-.079,0-.079.079,0,.079l.473.315h.158l1.262-.71c.079,0,.079-.079,0-.079L122.6,43.7h-.158Z" transform="translate(-29.695 -9.291)"/><path class="i" d="M123.084,44.515c-.079,0-.079.079,0,.079l.71.394h.158l.473-.315c.079,0,.079-.079,0-.079l-.71-.394h-.158Z" transform="translate(-30.097 -9.396)"/><path class="i" d="M126.784,45.615c-.079,0-.079.079,0,.079l.631.394h.158l.473-.315c.079,0,.079-.079,0-.079l-.631-.394h-.158Z" transform="translate(-30.878 -9.629)"/><path class="i" d="M124.584,45.31c-.079,0-.079.079,0,.079l1.262.789H126l.473-.315c.079,0,.079-.079,0-.079l-.552-.315.71-.394c.079,0,.079-.079,0-.079L126,44.6h-.158l-.789.473-.158.079Z" transform="translate(-30.413 -9.481)"/><path class="i" d="M127.884,46.315c-.079,0-.079.079,0,.079l.631.394h.158l.473-.315c.079,0,.079-.079,0-.079L128.515,46h-.158Z" transform="translate(-31.111 -9.777)"/><path class="i" d="M128.984,46.915c-.079,0-.079.079,0,.079l.631.394h.158l.473-.315c.079,0,.079-.079,0-.079l-.631-.394h-.158Z" transform="translate(-31.343 -9.904)"/><path class="i" d="M130.184,47.615c-.079,0-.079.079,0,.079l.631.394h.158l.473-.315c.079,0,.079-.079,0-.079l-.631-.394h-.158Z" transform="translate(-31.597 -10.052)"/><path class="i" d="M131.284,48.315c-.079,0-.079.079,0,.079l.631.394h.158l.473-.315c.079,0,.079-.079,0-.079L131.915,48h-.158Z" transform="translate(-31.829 -10.199)"/><path class="i" d="M132.384,49.015c-.079,0-.079.079,0,.079l.631.394h.158l.473-.315c.079,0,.079-.079,0-.079l-.631-.394h-.158Z" transform="translate(-32.062 -10.347)"/><path class="i" d="M133.584,49.715c-.079,0-.079.079,0,.079l.631.394h.158l.473-.315c.079,0,.079-.079,0-.079l-.631-.394h-.158Z" transform="translate(-32.315 -10.495)"/><path class="i" d="M134.684,50.415c-.079,0-.079.079,0,.079l.631.394h.158l.473-.315c.079,0,.079-.079,0-.079l-.631-.394h-.158Z" transform="translate(-32.548 -10.643)"/><path class="i" d="M135.884,51.115c-.079,0-.079.079,0,.079l.631.394h.158l.473-.315c.079,0,.079-.079,0-.079l-.631-.394h-.158Z" transform="translate(-32.801 -10.791)"/><path class="i" d="M136.984,51.815c-.079,0-.079.079,0,.079l.631.394h.158l.473-.315c.079,0,.079-.079,0-.079l-.631-.394h-.158Z" transform="translate(-33.034 -10.939)"/><path class="i" d="M138.184,52.515c-.079,0-.079.079,0,.079l1.341.868h.158l.473-.315c.079,0,.079-.079,0-.079l-1.341-.868h-.158Z" transform="translate(-33.287 -11.087)"/><path class="i" d="M126.484,46.615c-.079,0-.079.079,0,.079l.631.394h.158l.473-.315c.079,0,.079-.079,0-.079l-.631-.394h-.158Z" transform="translate(-30.815 -9.84)"/><path class="i" d="M127.684,47.315c-.079,0-.079.079,0,.079l.631.394h.158l.473-.315c.079,0,.079-.079,0-.079L128.315,47h-.158Z" transform="translate(-31.069 -9.988)"/><path class="i" d="M128.784,48.015c-.079,0-.079.079,0,.079l.631.394h.158l.473-.315c.079,0,.079-.079,0-.079l-.631-.394h-.158Z" transform="translate(-31.301 -10.136)"/><path class="i" d="M129.984,48.715c-.079,0-.079.079,0,.079l.631.394h.158l.473-.315c.079,0,.079-.079,0-.079l-.631-.394h-.158Z" transform="translate(-31.555 -10.284)"/><path class="i" d="M131.084,49.415c-.079,0-.079.079,0,.079l.631.394h.158l.473-.315c.079,0,.079-.079,0-.079l-.631-.394h-.158Z" transform="translate(-31.787 -10.432)"/><path class="i" d="M132.184,50.015c-.079,0-.079.079,0,.079l.631.394h.158l.473-.315c.079,0,.079-.079,0-.079l-.631-.394h-.158Z" transform="translate(-32.019 -10.559)"/><path class="i" d="M133.384,50.715c-.079,0-.079.079,0,.079l.631.394h.158l.473-.315c.079,0,.079-.079,0-.079l-.631-.394h-.158Z" transform="translate(-32.273 -10.707)"/><path class="i" d="M134.484,51.415c-.079,0-.079.079,0,.079l.631.394h.158l.473-.315c.079,0,.079-.079,0-.079l-.631-.394h-.158Z" transform="translate(-32.505 -10.854)"/><path class="i" d="M135.584,52.115c-.079,0-.079.079,0,.079l.631.394h.158l.473-.315c.079,0,.079-.079,0-.079l-.631-.394h-.158Z" transform="translate(-32.738 -11.002)"/><path class="i" d="M136.784,52.815c-.079,0-.079.079,0,.079l.631.394h.158l.473-.315c.079,0,.079-.079,0-.079l-.631-.394h-.158Z" transform="translate(-32.991 -11.15)"/><path class="i" d="M137.884,53.515c-.079,0-.079.079,0,.079l.789.473h.158l.473-.315c.079,0,.079-.079,0-.079l-.789-.473h-.158Z" transform="translate(-33.224 -11.298)"/><path class="i" d="M122.184,45.115c-.079,0-.079.079,0,.079l.71.394h.158l.473-.315c.079,0,.079-.079,0-.079l-.71-.394h-.158Z" transform="translate(-29.906 -9.523)"/><path class="i" d="M123.384,45.915c-.079,0-.079.079,0,.079l.789.473h.158l.473-.315c.079,0,.079-.079,0-.079l-.789-.473h-.158Z" transform="translate(-30.16 -9.692)"/><path class="i" d="M124.784,46.715c-.079,0-.079.079,0,.079l.631.394h.158l.473-.315c.079,0,.079-.079,0-.079l-.631-.394h-.158Z" transform="translate(-30.456 -9.861)"/><path class="i" d="M125.884,47.415c-.079,0-.079.079,0,.079l.631.394h.158l.473-.315c.079,0,.079-.079,0-.079l-.631-.394h-.158Z" transform="translate(-30.688 -10.009)"/><path class="i" d="M127.084,48.115c-.079,0-.079.079,0,.079l.631.394h.158l.473-.315c.079,0,.079-.079,0-.079l-.631-.394h-.158Z" transform="translate(-30.942 -10.157)"/><path class="i" d="M128.184,48.815c-.079,0-.079.079,0,.079l.631.394h.158l.473-.315c.079,0,.079-.079,0-.079l-.631-.394h-.158Z" transform="translate(-31.174 -10.305)"/><path class="i" d="M129.284,49.515c-.079,0-.079.079,0,.079l.631.394h.158l.473-.315c.079,0,.079-.079,0-.079l-.631-.394h-.158Z" transform="translate(-31.407 -10.453)"/><path class="i" d="M130.484,50.115c-.079,0-.079.079,0,.079l.631.394h.158l.473-.315c.079,0,.079-.079,0-.079l-.631-.394h-.158Z" transform="translate(-31.66 -10.58)"/><path class="i" d="M131.584,50.815c-.079,0-.079.079,0,.079l.631.394h.158l.473-.315c.079,0,.079-.079,0-.079l-.631-.394h-.158Z" transform="translate(-31.893 -10.728)"/><path class="i" d="M132.784,51.515c-.079,0-.079.079,0,.079l.631.394h.158l.473-.315c.079,0,.079-.079,0-.079l-.631-.394h-.158Z" transform="translate(-32.146 -10.876)"/><path class="i" d="M133.884,52.215c-.079,0-.079.079,0,.079l.631.394h.158l.473-.315c.079,0,.079-.079,0-.079l-.631-.394h-.158Z" transform="translate(-32.379 -11.023)"/><path class="i" d="M134.984,52.915c-.079,0-.079.079,0,.079l.631.394h.158l.473-.315c.079,0,.079-.079,0-.079l-.631-.394h-.158Z" transform="translate(-32.611 -11.171)"/><path class="i" d="M136.184,53.615c-.079,0-.079.079,0,.079l1.341.868h.158l.473-.315c.079,0,.079-.079,0-.079l-1.341-.868h-.158Z" transform="translate(-32.865 -11.319)"/><path class="i" d="M119.184,45.61c-.079,0-.079.079,0,.079l.473.315h.158l1.262-.71c.079,0,.079-.079,0-.079L120.6,44.9h-.158Z" transform="translate(-29.272 -9.544)"/><path class="i" d="M121.084,45.715c-.079,0-.079.079,0,.079l.71.394h.158l.473-.315c.079,0,.079-.079,0-.079l-.71-.394h-.158Z" transform="translate(-29.674 -9.65)"/><path class="i" d="M122.384,46.415c-.079,0-.079.079,0,.079l.315.237h.158l.473-.315c.079,0,.079-.079,0-.079l-.394-.237h-.158Z" transform="translate(-29.949 -9.798)"/><path class="i" d="M123.184,46.915c-.079,0-.079.079,0,.079l.394.237h.158l.473-.315c.079,0,.079-.079,0-.079l-.394-.237h-.158Z" transform="translate(-30.118 -9.904)"/><path class="i" d="M124.084,47.415c-.079,0-.079.079,0,.079l1.025.631h.158l.473-.315c.079,0,.079-.079,0-.079l-1.025-.631h-.158Z" transform="translate(-30.308 -10.009)"/><path class="i" d="M125.684,48.415c-.079,0-.079.079,0,.079l.631.394h.158l.473-.315c.079,0,.079-.079,0-.079l-.631-.394h-.158Z" transform="translate(-30.646 -10.221)"/><path class="i" d="M126.784,49.115c-.079,0-.079.079,0,.079l.631.394h.158l.473-.315c.079,0,.079-.079,0-.079l-.631-.394h-.158Z" transform="translate(-30.878 -10.368)"/><path class="i" d="M127.984,49.815c-.079,0-.079.079,0,.079l.631.394h.158l.473-.315c.079,0,.079-.079,0-.079l-.631-.394h-.158Z" transform="translate(-31.132 -10.516)"/><path class="i" d="M129.084,50.515c-.079,0-.079.079,0,.079l.631.394h.158l.473-.315c.079,0,.079-.079,0-.079l-.631-.394h-.158Z" transform="translate(-31.364 -10.664)"/><path class="i" d="M130.284,51.215c-.079,0-.079.079,0,.079l.631.394h.158l.473-.315c.079,0,.079-.079,0-.079l-.631-.394h-.158Z" transform="translate(-31.618 -10.812)"/><path class="i" d="M131.384,51.915c-.079,0-.079.079,0,.079l.631.394h.158l.473-.315c.079,0,.079-.079,0-.079l-.631-.394h-.158Z" transform="translate(-31.85 -10.96)"/><path class="i" d="M132.484,52.615c-.079,0-.079.079,0,.079l.631.394h.158l.473-.315c.079,0,.079-.079,0-.079l-.631-.394h-.158Z" transform="translate(-32.083 -11.108)"/><path class="i" d="M133.684,53.215c-.079,0-.079.079,0,.079l.631.394h.158l.473-.315c.079,0,.079-.079,0-.079l-.631-.394h-.158Z" transform="translate(-32.336 -11.235)"/><path class="i" d="M134.784,53.915c-.079,0-.079.079,0,.079l.631.394h.158l.473-.315c.079,0,.079-.079,0-.079l-.631-.394h-.158Z" transform="translate(-32.569 -11.383)"/><path class="i" d="M135.884,54.615c-.079,0-.079.079,0,.079l.631.394h.158l.473-.315c.079,0,.079-.079,0-.079l-.631-.394h-.158Z" transform="translate(-32.801 -11.531)"/><path class="i" d="M120.484,46.515c-.079,0-.079.079,0,.079l.631.394h.158l.473-.315c.079,0,.079-.079,0-.079l-.631-.394h-.158Z" transform="translate(-29.547 -9.819)"/><path class="i" d="M121.684,47.115c-.079,0-.079.079,0,.079l.631.394h.158l.473-.315c.079,0,.079-.079,0-.079l-.631-.394h-.158Z" transform="translate(-29.801 -9.946)"/><path class="i" d="M122.784,47.815c-.079,0-.079.079,0,.079l.631.394h.158l.473-.315c.079,0,.079-.079,0-.079l-.631-.394h-.158Z" transform="translate(-30.033 -10.094)"/><path class="i" d="M123.984,48.515c-.079,0-.079.079,0,.079l.631.394h.158l.473-.315c.079,0,.079-.079,0-.079l-.631-.394h-.158Z" transform="translate(-30.287 -10.242)"/><path class="i" d="M125.084,49.237c-.079,0-.079.079,0,.079l4.18,2.524h.158l.473-.315c.079,0,.079-.079,0-.079L125.794,49h-.158Z" transform="translate(-30.519 -10.411)"/><path class="i" d="M130.784,52.715c-.079,0-.079.079,0,.079l.631.394h.158l.473-.315c.079,0,.079-.079,0-.079l-.631-.394h-.158Z" transform="translate(-31.724 -11.129)"/><path class="i" d="M131.884,53.415c-.079,0-.079.079,0,.079l.631.394h.158l.473-.315c.079,0,.079-.079,0-.079l-.631-.394h-.158Z" transform="translate(-31.956 -11.277)"/><path class="i" d="M133.084,54.015c-.079,0-.079.079,0,.079l.631.394h.158l.473-.315c.079,0,.079-.079,0-.079l-.631-.394h-.158Z" transform="translate(-32.21 -11.404)"/><path class="i" d="M134.184,54.715c-.079,0-.079.079,0,.079l.631.394h.158l.473-.315c.079,0,.079-.079,0-.079l-.631-.394h-.158Z" transform="translate(-32.442 -11.552)"/><path class="i" d="M135.284,55.415c-.079,0-.079.079,0,.079l.473.315h.158l.473-.315c.079,0,.079-.079,0-.079l-.473-.315h-.158Z" transform="translate(-32.674 -11.7)"/><path class="j" d="M126.9,35.8l.631-.394.394-9.307-.631.394Z" transform="translate(-30.915 -5.572)"/><path class="k" d="M140.808,47.439l.631-.394L128.031,39l-.631.394Z" transform="translate(-31.021 -8.298)"/><path class="l" d="M141.408,34.339l.631-.394L128.631,25.9l-.631.394Z" transform="translate(-31.148 -5.53)"/><path class="i" d="M136.458,30.691c-.079-.079-.158,0-.158.079s.079.237.158.237c.079.079.158,0,.158-.079S136.537,30.691,136.458,30.691Z" transform="translate(-32.902 -6.535)"/><path class="m" d="M137.189,30.479h0V30.4h-.079l-.631.394-.079.079h.079l.394-.237.237-.158C137.189,30.558,137.189,30.558,137.189,30.479Z" transform="translate(-32.923 -6.481)"/><path class="e" d="M141.911,34.178l-.473,11.752c0,.237-.158.315-.394.237L126.61,37.49a.637.637,0,0,1-.315-.71l.473-11.752c0-.237.158-.315.394-.237L141.6,33.468A1.175,1.175,0,0,1,141.911,34.178Zm-7.414-4.5c0-.079-.079-.237-.158-.237-.079-.079-.158,0-.158.079s.079.237.158.237C134.418,29.84,134.418,29.761,134.5,29.682Z" transform="translate(-30.783 -5.289)"/><path class="i" d="M126.9,35.826a.971.971,0,0,0,.394.789L140.7,44.66a.289.289,0,0,0,.473-.237l.394-9.307a.971.971,0,0,0-.394-.789l-13.408-8.045a.289.289,0,0,0-.473.237Z" transform="translate(-30.915 -5.597)"/><path class="f" d="M142.737,33.707V33.47h0v-.079h0v-.079h0a.077.077,0,0,0-.079-.079h0l-.079-.079h0a.077.077,0,0,1-.079-.079L128.068,24.4h-.237l-.631.394h.315l14.433,8.676a.077.077,0,0,1,.079.079h0l.079.079h0a.077.077,0,0,0,.079.079h0a.077.077,0,0,0,.079.079h0a.077.077,0,0,0,.079.079v.079h0v.079h0V34.1l-.473,11.752c0,.158-.079.237-.158.237l.631-.394c.079-.079.079-.158.158-.237Z" transform="translate(-30.979 -5.213)"/><path class="g" d="M88.706,36.576c-.394-1.893-3.155-10.726-4.18-12.54-1.262-2.287-3.155-4.259-3.943-3.391-.868.946-1.5,2.208-1.025,5.363s5.521,14.67,6.783,15.616S99.2,38.705,99.2,38.705l-3.549-2.366Z" transform="translate(-20.877 -4.375)"/><path class="b" d="M68.9,110.4l.315,5.442a.077.077,0,0,0,.079.079h.394c.079,0,.079,0,.079-.079V110.4Z" transform="translate(-18.66 -23.385)"/><path class="b" d="M68.8,109.584c0-1.1,1.1-1.972.946-1.341-.079.394.789.631.789,1.341v.237a19.181,19.181,0,0,0,1.5,2.129c.394.473,1.025.158,1.42.552,1.1,1.025,2.918,4.811,2.682,4.811-1.025.315-4.1-.473-5.127-1.183a3.6,3.6,0,0,1-1.577-2.839V111.95a1.59,1.59,0,0,0-.237-.868A4.178,4.178,0,0,1,68.8,109.584Z" transform="translate(-18.639 -22.884)"/><path class="c" d="M69.285,102.895V102.5c0-.946-2.129-8.912-2.287-14.749A43.791,43.791,0,0,1,68.575,76h4.89s-1.341,21.847-1.341,23.819a16.972,16.972,0,0,0,.946,6.073c.079.237.237.868,0,1.183-.315.315-2.366.473-2.918-.158a2.57,2.57,0,0,1-.631-1.5A24.943,24.943,0,0,1,69.285,102.895Z" transform="translate(-18.256 -16.116)"/><path class="b" d="M78.7,104.7l.315,5.442a.077.077,0,0,0,.079.079h.394a.077.077,0,0,0,.079-.079V104.7Z" transform="translate(-20.731 -22.18)"/><path class="b" d="M78.6,103.884c0-1.1,1.1-1.972.946-1.341-.079.394.789.631.789,1.341v.237a19.183,19.183,0,0,0,1.5,2.13c.394.473,1.025.158,1.42.552,1.1,1.025,2.918,4.732,2.682,4.811-1.025.315-4.1-.473-5.127-1.183a3.6,3.6,0,0,1-1.577-2.839V106.25a1.59,1.59,0,0,0-.237-.868A6.869,6.869,0,0,1,78.6,103.884Z" transform="translate(-20.709 -21.679)"/><path class="c" d="M79.185,97.195V96.8c0-.946-2.129-8.912-2.287-14.749A43.13,43.13,0,0,1,78.475,70.3h4.89s-1.341,21.847-1.341,23.819a16.61,16.61,0,0,0,.946,6.073c.079.237.237.868,0,1.183a3.479,3.479,0,0,1-2.918-.158,2.569,2.569,0,0,1-.631-1.5A13.054,13.054,0,0,1,79.185,97.195Z" transform="translate(-20.348 -14.911)"/><path class="b" d="M80.85,51.6l1.972,17.115C81.481,69.819,72.805,76.05,62,73.368l3.155-19.481C70.6,55.386,75.8,54.36,80.85,51.6Z" transform="translate(-17.202 -10.96)"/><path class="g" d="M65.935,39.606C64.91,32.587,64.2,26.908,64.2,25.015c0-5.363,5.679-5.521,5.679-5.521l4.574-.394a32.588,32.588,0,0,1,4.338,1.42c.237.079.315.946.631,2.445,1.1,1.893,2.445,4.5,2.445,6.231,0,2.287-1.42,4.732-1.656,5.679l1.814,13.171S72.56,54.67,64.358,51.91C64.358,51.91,66.329,42.682,65.935,39.606Z" transform="translate(-17.667 -4.093)"/><path class="g" d="M67.607,41.631c.473-1.972,1.5-11.673,1.183-13.881-.315-2.76-1.42-5.521-2.682-4.969-1.341.473-2.524,1.42-3.47,4.653s-.71,16.484.237,17.982,14.433,5.205,14.433,5.205l.71-5.127Z" transform="translate(-17.21 -4.856)"/><path class="c" d="M75.938,19.49c.473,2.051,1.735,5.6,1.735,5.6S71.6,21.856,71.6,19.727a24.123,24.123,0,0,1,.789-5.127l4.574.552Z" transform="translate(-19.23 -3.142)"/><path class="c" d="M75.022,15.573s2.051,1.025,2.918,0a9.744,9.744,0,0,0,1.814-6.7A11.119,11.119,0,0,0,78.177,3.9L71,7.765l.552,4.417.315,1.1Z" transform="translate(-19.104 -0.881)"/><path class="i" d="M70.551,29.67s-1.735-6.941.789-12.461c1.814-3.786-.631-5.679-1.262-7.256-.71-1.577,3.865-.552,5.679-3.47a8.249,8.249,0,0,0,1.1-2.839s2.76,2.445.946,9.07a6.6,6.6,0,0,0,2.366-4.732,7.887,7.887,0,0,0-1.656-5.915,1.274,1.274,0,0,0-1.5-.394s0-.315-1.5-1.1a5.118,5.118,0,0,0-5.679.868C67.948,3.17,66.292,5.536,67,8.691s-.158,5.836-.946,6.783a7.885,7.885,0,0,0-1.656,4.89C64.241,26.594,70.551,29.67,70.551,29.67Z" transform="translate(-17.708 -0.072)"/><path class="c" d="M81.3,55.348c.868-.237.868-.473.71-1.183-.158-.868-1.341-1.183-1.893-1.814-.315-.394-.315-.394-.552-.473a.593.593,0,0,0-.789.158,1.8,1.8,0,0,0-.394,1.735C78.465,54.8,80.279,55.664,81.3,55.348Z" transform="translate(-20.654 -11.002)"/><path class="c" d="M103.784,43.283c.631,0,.552-.158.315-.71-.315-.71-1.341-1.1-1.972-1.735a2.516,2.516,0,0,0-.552-.473c-.315-.158-.552-.158-.631-.079-.237.158-.315.394,0,1.183A4.288,4.288,0,0,0,103.784,43.283Z" transform="translate(-25.387 -8.559)"/></g></svg>