<svg xmlns="http://www.w3.org/2000/svg" xmlns:xlink="http://www.w3.org/1999/xlink" width="993" height="603" viewBox="0 0 993 603"><defs><style>.a{fill:#fff;stroke:#707070;}.b{clip-path:url(#a);}.c{fill:#c1efff;}</style><clipPath id="a"><rect class="a" width="993" height="603" transform="translate(373 2738)"/></clipPath></defs><g class="b" transform="translate(-373 -2738)"><path class="c" d="M200.869,74.714q3.8,10.012,7.94,19.883L198.5,70.178A575.032,575.032,0,0,0,271.651,195.6l-15.984-20.687a554.72,554.72,0,0,0,99.309,99.921l-20.688-15.984c28.294,21.669,58.842,40.239,91.676,54.184l-24.418-10.3a330.719,330.719,0,0,0,82.925,22.81L457.3,321.886c34.4,4.431,69.047,3.306,103.365-1.29l-27.175,3.651c54.09-7.486,106.582-22.948,158.891-38.166,26.215-7.625,52.448-15.228,78.947-21.814,35.292-8.771,70.748-14.5,106.808-19.173a517.3,517.3,0,0,1,85.257-4.39c18.625.677,36.972,2.912,55.434,5.392,17.227,2.314,34.309,4.808,51.211,8.913,31.331,7.608,61.6,19.862,90.631,33.722,29.17,13.928,54.824,32.8,79.844,53.174,51.132,41.628,82.93,101.145,122.563,152.749l-15.984-20.688c14.543,18.746,30.672,36.248,49.417,50.874l-20.688-15.984a172.952,172.952,0,0,0,37.7,22.253l-24.418-10.3a141.623,141.623,0,0,0,24.759,7.542,76.981,76.981,0,0,1,34.763,18.3,77.25,77.25,0,0,1,26.329,28.68,76.084,76.084,0,0,1,12.13,38.005,77.446,77.446,0,0,1-1.826,40.762c-8,24.734-23.333,48.6-46.976,61.09l-24.419,10.305a102.954,102.954,0,0,1-54.35,0c-17.872-3.679-34.345-11.277-51-18.619a165.713,165.713,0,0,1-26.112-14.411c-22.787-15.419-44.556-33.138-63.006-53.636-34.338-38.15-60.417-82.37-91.557-122.927l15.984,20.688c-15.544-20.047-32.772-38.354-52.774-54.013l20.688,15.984a309.432,309.432,0,0,0-68.61-39.721l24.419,10.3a364.292,364.292,0,0,0-89.482-24.072l27.175,3.651c-42.642-5.7-85.742-4.63-128.332.985l27.173-3.651c-65.418,8.9-128.333,29.063-191.63,47.081-31.322,8.916-62.84,17.324-94.854,23.387-38.959,7.377-79.107,13.077-118.87,12.685-76.851-.757-151.355-22.307-217.883-60.489-32.224-18.5-62.185-41.416-90.373-65.5A553.934,553.934,0,0,1,128.616,341.1C102,309.831,77.063,276.582,56.144,241.191,35.13,205.637,18.36,167.634,3.728,129.063A77.421,77.421,0,0,1,1.9,88.3,76.075,76.075,0,0,1,14.032,50.3a77.252,77.252,0,0,1,26.329-28.68,76.993,76.993,0,0,1,34.763-18.3c26.167-5.96,55.54-4.67,78.768,10.305L174.58,29.607a102.125,102.125,0,0,1,26.289,45.106Z" transform="matrix(-0.966, -0.259, 0.259, -0.966, 1673.249, 3827.672)"/></g></svg>