<?xml version="1.0" encoding="utf-8"?>
<!-- Generator: Adobe Illustrator 22.0.0, SVG Export Plug-In . SVG Version: 6.00 Build 0)  -->
<svg version="1.1" id="Capa_1" xmlns="http://www.w3.org/2000/svg" xmlns:xlink="http://www.w3.org/1999/xlink" x="0px" y="0px"
	 viewBox="0 0 447.2 447.2" style="enable-background:new 0 0 447.2 447.2;" xml:space="preserve">
<style type="text/css">
	.st0{fill:#FFFFFF;}
</style>
<g>
	<g>
		<path class="st0" d="M0.4,229c3.1,16.1,17.5,27.5,33.8,26.9h314.2l-9.6,4.3c-5.9,3.1-11.3,7-16,11.7l-88.3,88.6
			c-11.6,11.1-13.6,29-4.6,42.4c0.8,1.1,1.7,2.1,2.7,3.1c12.5,12.6,32.8,12.6,45.3,0.1l160-160l0,0c12.5-12.5,12.5-32.8,0-45.3
			l-160-160c-1.1-1-2.1-2-3.3-2.8c-14.2-10.5-34.3-7.4-44.7,6.9c-9,13.4-7.1,31.3,4.6,42.4l88.5,88.5c5.3,5.3,11.4,9.6,18.1,12.8
			l6.9,3.2H32.4c-1.8,0-3.7,0.1-5.5,0.4C9.5,195.1-2.4,211.5,0.4,229z"/>
	</g>
</g>
</svg>
