<svg xmlns="http://www.w3.org/2000/svg" width="47.833" height="42" viewBox="0 0 47.833 42"><defs><style>.a,.b{fill:#2f81ff;}.a{opacity:0.25;}</style></defs><path class="a" d="M31.224,0a8,8,0,0,1,6.952,4.041l7.4,13a8,8,0,0,1,0,7.917l-7.4,13A8,8,0,0,1,31.224,42H16.609a8,8,0,0,1-6.952-4.041l-7.4-13a8,8,0,0,1,0-7.917l7.4-13A8,8,0,0,1,16.609,0Z"/><path class="b" d="M4,10.5A1.5,1.5,0,1,0,5.5,12,1.5,1.5,0,0,0,4,10.5Zm0-6A1.5,1.5,0,1,0,5.5,6,1.5,1.5,0,0,0,4,4.5Zm0,12A1.5,1.5,0,1,0,5.5,18,1.5,1.5,0,0,0,4,16.5ZM8,19H20a1,1,0,0,0,0-2H8a1,1,0,0,0,0,2Zm0-6H20a1,1,0,0,0,0-2H8a1,1,0,0,0,0,2ZM7,6A1,1,0,0,0,8,7H20a1,1,0,0,0,0-2H8A1,1,0,0,0,7,6Z" transform="translate(12.5 9.5)"/></svg>