<svg xmlns="http://www.w3.org/2000/svg" xmlns:xlink="http://www.w3.org/1999/xlink" width="385" height="385" viewBox="0 0 385 385"><defs><style>.a{fill:#fff;}.b{clip-path:url(#a);}.c{fill:#71a1a4;}</style><clipPath id="a"><rect class="a" width="385" height="385" rx="35" transform="translate(186.166 415.683)"/></clipPath></defs><g class="b" transform="translate(-186.166 -415.683)"><path class="c" d="M283.494,984.412C315,965.531,343.4,941.218,370.18,916.2c22.152-20.7,43.705-42.087,67.659-60.743l-17.556,13.564a238.723,238.723,0,0,1,52.057-30.835l-20.722,8.745a191.927,191.927,0,0,1,45.459-12.837l-23.059,3.1a140.314,140.314,0,0,1,37.473-.245l-23.06-3.1a112.6,112.6,0,0,1,26.074,7.133l-20.721-8.744a104.6,104.6,0,0,1,22.156,13.036l-17.556-13.564a125.077,125.077,0,0,1,20.137,20.562l-13.564-17.556c10.205,13.347,18.244,28.081,25.97,42.956,10.728,20.655,21.052,42.821,38.944,58.436,16,13.96,34.234,25.7,55.562,29.445,23.1,4.054,43.359,4.316,66.4-1.607,24.51-6.3,44.965-20.746,67.717-30.833l-20.721,8.745a94.626,94.626,0,0,1,22.882-6.349l-23.06,3.1a125.039,125.039,0,0,1,31.143.427l-23.06-3.1c23.889,3.446,46.631,11.587,69.818,17.95a575.987,575.987,0,0,0,71.872,14.574c55.694,7.873,111.242,11.516,167.43,13.165,23.012.675,46.107,1.684,69.112.269,28.914-1.779,59.045-5.37,86.035-16.527,14.568-6.022,29.15-11.708,42.33-20.419a300.053,300.053,0,0,0,36.656-28.528c17.276-15.772,31.558-35.047,45.2-53.88,23.3-32.166,41.454-67.75,65.615-99.325l-13.564,17.556c10.971-14.166,23.1-27.32,37.183-38.453L1406.86,755.88a186.35,186.35,0,0,1,41.4-24.01l-20.722,8.745c20.784-8.548,42.633-13.651,64.861-16.684l-23.06,3.1c37.123-4.835,74.626-4.106,111.953-2.8,21.75.758,46.143-10.212,61.338-25.407,15.045-15.045,26.375-39.73,25.406-61.337-1-22.435-8.374-45.7-25.406-61.338-17.3-15.885-37.573-24.578-61.338-25.406-29.832-1.041-59.751-1.751-89.547.5-35.707,2.692-72.9,7.3-106.483,20.533-19.493,7.683-39.146,15.689-56.579,27.484-16.117,10.906-31.858,23.108-45.461,37.11-21.854,22.495-40.182,48.8-56.964,75.232-15.219,23.972-29.439,48.641-46.729,71.223l13.564-17.556c-10.71,13.817-22.562,26.644-36.4,37.391l17.556-13.564a147.772,147.772,0,0,1-30.1,17.734l20.722-8.745a176.959,176.959,0,0,1-44.433,11.667l23.06-3.1c-36.513,4.654-73.861,2.044-110.524.768-38.926-1.355-77.849-3.535-116.484-8.651l23.06,3.1a614.3,614.3,0,0,1-64.631-12.072c-21.074-5.2-41.584-12.476-62.714-17.454-34.823-8.2-68.617-10.517-103.7-2.88-26.818,5.839-49.021,22.069-73.779,32.672l20.721-8.744A76.466,76.466,0,0,1,637.58,798.2l23.06-3.1a58.422,58.422,0,0,1-12.148.055l23.06,3.1a45.019,45.019,0,0,1-9.54-2.492l20.722,8.745a41.117,41.117,0,0,1-6.892-3.951L693.4,814.123a47.149,47.149,0,0,1-7.589-7.869l13.564,17.556c-9.026-12.694-15.279-27.474-22.571-41.195-10.476-19.71-22.761-37.252-36.88-54.642a170.315,170.315,0,0,0-49.787-41.307,220.29,220.29,0,0,0-37.68-16.007c-13.757-4.44-28.729-5.829-42.893-7.463-21.5-2.479-43.485.771-64.6,4.564-21.789,3.914-41.895,12.622-62.1,21.437-34.627,15.106-64.621,39.472-92.619,64.446-27.618,24.636-53.215,51.524-82.438,74.333l17.556-13.564a306.33,306.33,0,0,1-29.426,20.2c-18.84,11.292-34.009,30.578-39.865,51.841a65.72,65.72,0,0,0-1.55,34.591,64.558,64.558,0,0,0,10.295,32.251c11.941,18.522,29.722,34.827,51.841,39.865,22.639,5.156,46.492,3.452,66.842-8.745Z" transform="translate(-180.855 -198.035) rotate(-9)"/></g></svg>