<?xml version="1.0" encoding="utf-8"?>
<!-- Generator: Adobe Illustrator 22.0.0, SVG Export Plug-In . SVG Version: 6.00 Build 0)  -->
<svg version="1.1" id="Layer_1" xmlns="http://www.w3.org/2000/svg" xmlns:xlink="http://www.w3.org/1999/xlink" x="0px" y="0px"
	 viewBox="0 0 128 64" style="enable-background:new 0 0 128 64;" xml:space="preserve">
<style type="text/css">
	.st0{fill:#007ACC;}
	.st1{fill:#F7DF1E;}
</style>
<path class="st0" d="M0,32v32h64V0H0V32z M51.6,29.5c1.6,0.4,2.9,1.1,4,2.3c0.6,0.6,1.5,1.8,1.5,2.1c0,0.1-2.8,2-4.5,3
	c-0.1,0-0.3-0.2-0.6-0.6c-0.8-1.2-1.7-1.7-3-1.8c-1.9-0.1-3.2,0.9-3.2,2.6c0,0.5,0.1,0.8,0.3,1.2c0.4,0.9,1.2,1.4,3.7,2.5
	c4.6,2,6.5,3.3,7.8,5.1c1.4,2.1,1.7,5.4,0.7,7.8c-1,2.7-3.5,4.5-7.1,5.1c-1.1,0.2-3.7,0.2-4.9,0c-2.6-0.5-5-1.7-6.5-3.4
	c-0.6-0.7-1.7-2.3-1.7-2.5c0,0,0.3-0.2,0.6-0.4l2.4-1.4l1.8-1.1l0.4,0.6c0.5,0.8,1.7,2,2.4,2.3c2,1.1,4.8,0.9,6.2-0.3
	c0.6-0.5,0.8-1.1,0.8-1.9c0-0.7-0.1-1.1-0.5-1.6c-0.5-0.7-1.5-1.3-4.4-2.6c-3.3-1.4-4.7-2.3-6-3.7c-0.8-0.8-1.5-2.1-1.8-3.2
	c-0.2-0.9-0.3-3.2-0.1-4.1c0.7-3.2,3.1-5.4,6.6-6.1C47.8,29.1,50.5,29.2,51.6,29.5L51.6,29.5z M36.6,32.1l0,2.6h-8.3v23.7h-5.9V34.7
	H14v-2.6l0.1-2.6c0,0,5.1-0.1,11.2,0l11.2,0L36.6,32.1z"/>
<rect x="64" class="st1" width="64" height="64"/>
<path d="M107,50c1.3,2.1,3,3.7,5.9,3.7c2.5,0,4.1-1.2,4.1-3c0-2.1-1.6-2.8-4.4-4l-1.5-0.6c-4.3-1.8-7.2-4.2-7.2-9.1
	c0-4.5,3.4-7.9,8.8-7.9c3.8,0,6.6,1.3,8.6,4.8l-4.7,3c-1-1.8-2.1-2.6-3.9-2.6c-1.8,0-2.9,1.1-2.9,2.6c0,1.8,1.1,2.5,3.7,3.7l1.5,0.6
	c5.1,2.2,8,4.4,8,9.4c0,5.4-4.3,8.4-10,8.4c-5.6,0-9.2-2.7-11-6.2L107,50z M85.7,50.5c0.9,1.7,1.8,3.1,3.9,3.1c2,0,3.2-0.8,3.2-3.8
	V29.4h6v20.5c0,6.2-3.7,9.1-9,9.1c-4.8,0-7.6-2.5-9-5.5L85.7,50.5z"/>
</svg>
